<?xml version="1.0" ?><!DOCTYPE svg  PUBLIC '-//W3C//DTD SVG 1.1//EN'  'http://www.w3.org/Graphics/SVG/1.1/DTD/svg11.dtd'><svg enable-background="new 0 0 33 33" height="33px" id="Layer_1" version="1.1" viewBox="0 0 33 33" width="33px" xml:space="preserve" xmlns="http://www.w3.org/2000/svg" xmlns:xlink="http://www.w3.org/1999/xlink"><g><path d="M26.905,10.036c-3.09,0-5.595,2.505-5.595,5.596c0,3.09,2.505,5.595,5.595,5.595   c3.091,0,5.595-2.505,5.595-5.595C32.5,12.541,29.996,10.036,26.905,10.036z M30.511,16.487h-7.212v-1.711h7.212V16.487z" fill="#1C75BC"/><path d="M27.069,22.34c-0.101,0.519-0.201,1.026-0.298,1.505h-3.577l0.457-2.34   c-0.383-0.212-0.742-0.461-1.074-0.742l-0.602,3.082h-5.102v-3.797h4.979c-0.32-0.366-0.605-0.765-0.842-1.195h-4.138v-3.373h3.323   c0.024-1.082,0.301-2.1,0.777-2.996H5.83V8.058c0-1.979,1.609-3.588,3.588-3.588h1.899c0.17,0.546,0.674,0.944,1.275,0.944h7.366   c0.603,0,1.106-0.398,1.275-0.944h1.901c1.978,0,3.587,1.609,3.587,3.588v0.867c0.062-0.002,0.121-0.01,0.183-0.01   c0.346,0,0.683,0.034,1.014,0.084V8.058c0-2.637-2.146-4.783-4.783-4.783h-2.104c-0.244-0.327-0.631-0.543-1.072-0.543h-7.366   c-0.441,0-0.827,0.216-1.071,0.543H9.418c-2.638,0-4.784,2.146-4.784,4.783v4.426H1.998c-0.826,0-1.498,0.67-1.498,1.497   s0.672,1.499,1.498,1.499h0.394c0.417,2.352,1.697,9.486,2.293,11.691c0.71,2.629,1.534,3.098,3.5,3.098l15.604-0.002l0.58,0.002   c1.965,0,2.789-0.469,3.498-3.098c0.271-1.001,0.682-3.02,1.09-5.145C28.36,22.218,27.727,22.323,27.069,22.34z M5.232,13.263   c0.396,0,0.718,0.322,0.718,0.718c0,0.397-0.321,0.718-0.718,0.718c-0.396,0-0.719-0.32-0.719-0.718   C4.514,13.585,4.837,13.263,5.232,13.263z M4.214,15.479h3.512l0.658,3.373H4.825C4.578,17.51,4.36,16.295,4.214,15.479z    M5.781,23.845c-0.237-1.17-0.493-2.502-0.734-3.797h3.57l0.742,3.797H5.781z M8.765,28.472l-0.58,0.003   c-1.192,0-1.289,0-1.769-1.772c-0.107-0.396-0.239-0.976-0.387-1.662h3.563l0.671,3.432H8.765z M15.679,28.474l-4.197-0.002   l-0.67-3.432h4.867V28.474z M15.679,23.845h-5.102l-0.74-3.797h5.842V23.845z M15.679,18.853H9.602l-0.657-3.373h6.734V18.853z    M21.071,28.474h-4.197V25.04h4.867L21.071,28.474z M26.136,26.702c-0.477,1.769-0.574,1.772-1.761,1.772c-0.002,0-0.004,0-0.006,0   l-2.079-0.001l0.671-3.434h3.563C26.377,25.727,26.242,26.306,26.136,26.702z" fill="#414042"/></g></svg>