<?xml version="1.0" ?><!DOCTYPE svg  PUBLIC '-//W3C//DTD SVG 1.1//EN'  'http://www.w3.org/Graphics/SVG/1.1/DTD/svg11.dtd'><svg enable-background="new 0 0 66 66" id="Layer_1" version="1.1" viewBox="0 0 66 66" xml:space="preserve" xmlns="http://www.w3.org/2000/svg" xmlns:xlink="http://www.w3.org/1999/xlink"><g><g><g><g><path d="M28.8619,19.6013c0,0-0.0011,0.0033-0.0022,0.0088c-0.046,0.1752-0.7928,2.9874-1.3207,3.812      c-1.2867,2.0062-5.7777,6.4446-6.8585,7.2199c-0.4994,0.3592-1.8014,0.4796-2.3292,0.7961      c-0.3406,0.2037-0.5942,0.6355-0.9895,0.6629c-0.5015,0.035-1.1376-0.5676-1.2164-1.0636      c-0.0887-0.5464,0.0913-1.5813,0.571-1.8562c0.6395-0.368,2.9512,0,2.9512,0s4.1427-5.298,5.0757-7.3195      c1.1279-2.4475,2.5384-9.6225,4.4975-9.7955C30.1421,14.2672,29.8015,16.8384,28.8619,19.6013z" fill="#F7B198"/></g><g><polygon fill="#61C19E" points="16.6337,33.8691 16.6074,34.501 16.487,37.3854 16.3687,40.2031 16.0566,47.6672       11.8285,47.1744 13.4032,33.5132 15.497,33.7191     "/></g><g><g><path d="M14.7413,33.2099c-0.0219,0-0.0442-0.0044-0.0656-0.0137c-0.0831-0.0363-0.1212-0.1329-0.0849-0.216       c0.0102-0.0237,1.0557-2.363,3.1272-1.9656c0.0892,0.0171,0.1475,0.1032,0.1304,0.1923s-0.1039,0.1472-0.1922,0.1304       c-1.8134-0.3475-2.7263,1.6874-2.7642,1.7743C14.8649,33.1731,14.8046,33.2099,14.7413,33.2099z" fill="#A4B1BE"/></g></g><g><polygon fill="#2CA47E" points="18.1712,33.1847 16.6337,33.8691 15.497,33.7191 13.4032,33.5132 15.8825,32.647     "/></g><g><polygon fill="#52BD96" points="17.3663,47.0473 17.3663,47.0495 16.0566,47.6672 16.38,39.934 16.4267,40.2535     "/></g><g><path d="M25.1578,48.6396c0,0-1.5736,4.5205-1.7554,4.7023L23.398,53.343      c-0.2146-0.046-3.6828-13.2724-4.3464-15.8086c-0.0351-0.1325-0.0613-0.2343-0.08-0.3055l-0.0022-0.0077      c-0.0175-0.069-0.0274-0.1051-0.0274-0.1051l1.9383-2.9863L25.1578,48.6396z" fill="#F28092"/></g><g><path d="M23.398,53.343l-5.0407,0.8662l-0.9911-7.1596v-0.0022l-0.9396-6.7939l-0.3701-2.6731l1.958-0.5848      l0.9549,0.2256l0.0022,0.0077c0.0186,0.0712,0.0449,0.173,0.08,0.3055C19.7153,40.0706,23.1834,53.297,23.398,53.343z" fill="#F38D9D"/></g><g><path d="M18.9421,37.116c0,0,0.0098,0.0361,0.0274,0.1051l-0.9549-0.2256l-1.958,0.5848l0.4468-0.576      l1.8562-2.3971l1.0053,0.2376l1.5156-0.7151L18.9421,37.116z" fill="#DB7483"/></g><g><polygon fill="#52BD96" points="18.3596,34.6072 16.5034,37.0044 16.6074,34.501 16.6337,33.8691 18.1712,33.1847     "/></g><g><path d="M33.3803,42.8291c0,0-1.9635,1.2451-3.1034,0.5651c-1.1411-0.679-3.8218-1.5999-3.8218-1.5999      l0.0854-0.0788l0.0022-0.0022v-0.0011l0.0383-0.035c0.4555-0.2431,4.4865,0.3088,6.611,0.7753      c0.012-0.0767,0.023-0.1533,0.035-0.23L33.3803,42.8291z" fill="#CF6728"/></g><g><polygon fill="#496CB3" points="50.7023,30.9097 45.6813,42.9731 45.5061,43.3947 45.3243,43.2961 41.5934,41.2702       46.4566,29.7171     "/></g><g><polygon fill="#F6A98D" points="39.4602,43.1497 36.5741,62.6383 34.4985,62.6383 34.7251,42.3227 38.4681,39.9777     "/></g><g><path d="M30.8655,42.0258c0,0,1.9247,5.2494,1.7514,6.137c-0.0645,0.3305-4.0395,13.3195-4.0395,13.3195      l2.3652,0.2358c0,0,5.465-9.321,6.1281-12.5949c0.5129-2.5324-0.3357-10.122-0.3357-10.122l-2.701-2.9389l-2.1008,2.3937      L30.8655,42.0258z" fill="#F7B198"/></g><g><path d="M38.4417,12.5632l-1.371,0.99l-0.7261-0.4194c-0.1676-0.1752-0.3329-0.3493-0.495-0.5213      c-0.8377-0.8892-1.5769-1.7237-1.9087-2.327l-0.0416,0.0504l0.0164-0.1018c0,0,2.7673,1.2626,4.3179-0.0821      c-0.0065,0.161-0.0098,0.3285-0.0087,0.5048c0.0011,0.2256,0.023,0.5114,0.0613,0.8355      C38.3246,11.8175,38.3782,12.1811,38.4417,12.5632z" fill="#F6A98D"/></g><g><path d="M35.3338,38.1397" fill="none" stroke="#5879BB" stroke-miterlimit="10" stroke-width="0.1095"/></g><g><path d="M33.9409,10.2855l-0.0416,0.0504l0.0164-0.1018C33.9245,10.2515,33.9322,10.2679,33.9409,10.2855z" fill="none"/></g><g><path d="M38.4472,15.9372c0.0153,0.1938-1.094-1.8595-1.3316-2.3008c-0.0285-0.0537-0.0449-0.0832-0.0449-0.0832      l1.371-0.99c0.0153,0.0909,0.0307,0.1818,0.0471,0.2738c0.0372,0.2168,0.0778,0.4391,0.1205,0.6614      c0.011,0.0613,0.023,0.1226,0.035,0.184c0.0252,0.1303,0.0504,0.2606,0.0767,0.3898      C38.6027,14.7709,38.4362,15.7959,38.4472,15.9372z" fill="#F37721"/></g><g><path d="M37.0707,13.5532c0,0.0252-0.0011,0.0515-0.0011,0.0778c-0.0756,5.8444-0.8388,14.8548-1.7094,24.3699      c0,0-0.0153,0.0821-0.0427,0.2234c-0.1665,0.8805-0.772,4.0726-0.8027,4.2588c-0.0088,0.0559-0.5399,0.0329-1.3229-0.0307      c1.1148-7.2856,1.981-17.4041,2.7859-28.2148l-0.2803-0.3252l-0.0449-0.0876c0.1708-0.1686,0.3285-0.3263,0.449-0.4479      c0.1478-0.1478,0.2431-0.2431,0.2431-0.2431L37.0707,13.5532z" fill="#F47E21"/></g><g><path d="M36.3446,13.1338c0,0-0.0438,0.0438-0.1194,0.1194c-0.0131,0.012-0.0263,0.0263-0.0405,0.0405      c-0.0142,0.0142-0.0296,0.0285-0.0449,0.0449l-0.0383,0.0383c-0.1205,0.1216-0.2782,0.2792-0.449,0.4479      c-0.5245,0.5224-1.1728,1.1619-1.279,1.2342c-0.1818,0.1259-1.5649-3.3838-1.5649-3.3838l1.0907-1.3393l0.0416-0.0504      c0.3318,0.6034,1.071,1.4378,1.9087,2.327C36.0117,12.7844,36.1771,12.9586,36.3446,13.1338z" fill="#F37721"/></g><g><path d="M41.2561,42.6955c-1.3886,0.6987-3.1703,0.5048-5.09,0l-0.8323-4.4493l-0.0164-0.0219      c0.0274-0.1413,0.0427-0.2234,0.0427-0.2234c0.8706-9.5152,1.6339-18.5255,1.7094-24.3699c0-0.0263,0.0011-0.0526,0.0011-0.0778      c0,0,0.0164,0.0296,0.0449,0.0832c0.2376,0.4413,1.3469,2.4946,1.3316,2.3008c-0.0109-0.1413,0.1555-1.1663,0.2738-1.8649      c0.3263,1.6317,0.6921,3.1473,0.6921,3.1473c0.0799,0.3603,0.1676,0.7337,0.2628,1.1148      c0.0854,0.3417,0.1763,0.6877,0.2738,1.0348c0.0208,0.0767,0.0427,0.1533,0.0657,0.23c0.0099,0.035,0.0197,0.0701,0.0296,0.104      c0.0252,0.0865,0.0504,0.173,0.0766,0.2584c0.0394,0.1325,0.0799,0.265,0.1216,0.3964v0.0011      c-0.1478,2.016-0.15,4.5008-0.0482,7.3151C40.3537,32.0579,40.7611,37.2398,41.2561,42.6955z" fill="#F06C22"/></g><g><path d="M51.6835,28.351c-0.0405,0.334-0.8055,0.8626-1.1285,0.9568c-0.3001,0.0887-0.7235,0.018-0.9412-0.0731      c-0.6257-0.2618-1.7828-1.0819-2.4464-1.1728c-1.728-0.2354-4.6804,0.4545-6.9724-0.3877      c-0.1018-2.8144-0.0996-5.2991,0.0482-7.3151c0.1884,0.5979,0.392,1.1816,0.6099,1.7248c0,0.0011,0,0.0011,0,0.0011      s-0.1183,2.0029,0.2508,2.5165c0.5683,0.7906,2.66,1.2002,3.6488,1.359c1.5342,0.2475,4.6924,0.0799,6.0219,0.8848      C51.1589,27.0774,51.7371,27.9053,51.6835,28.351z" fill="#F7B198"/></g><g><polygon fill="#F06C22" points="26.5426,41.7132 26.5393,41.7274 26.5404,41.7154     "/></g><g><g><path d="M20.7242,36.0968c-0.0634,0-0.1237-0.0369-0.1507-0.0987c-0.5189-1.1908-1.9971-4.387-2.598-4.8688       c-0.0708-0.0568-0.0821-0.1601-0.0253-0.2309c0.0566-0.0708,0.1599-0.0821,0.2309-0.0254       c0.7868,0.631,2.6162,4.8161,2.6936,4.9939c0.0363,0.0831-0.0018,0.18-0.0849,0.2162       C20.7684,36.0923,20.7461,36.0968,20.7242,36.0968z" fill="#0E151F"/></g></g><g><g><path d="M19.7952,37.1598c-0.0519,0-0.103-0.0245-0.135-0.0704c-1.3383-1.9221-2.2868-5.3356-2.3265-5.48       c-0.0241-0.0875,0.0274-0.1779,0.1147-0.202c0.088-0.0239,0.1778,0.0273,0.202,0.1148       c0.0096,0.0348,0.9735,3.5039,2.2795,5.3795c0.0518,0.0744,0.0335,0.1768-0.041,0.2286       C19.8603,37.1503,19.8276,37.1598,19.7952,37.1598z" fill="#0E151F"/></g></g><g><path d="M18.0868,30.0399c0,0-1.1828,1.1922-1.1069,1.5674c0.0265,0.1311,0.325,0.2868,0.4584,0.2762      c0.3793-0.0301,1.3692-1.3104,1.3692-1.3104L18.0868,30.0399z" fill="#F7B198"/></g><g><path d="M18.0868,30.0398c-0.2283,0.2921-0.4537,0.5851-0.665,0.8815      c-0.0994,0.1516-0.2092,0.2984-0.2823,0.4541c-0.0311,0.0721-0.0677,0.1645-0.0562,0.2044      c-0.0073,0.0173,0.0654,0.0848,0.132,0.1188c0.2743,0.2431,0.5279-0.1335,0.8076-0.348      c0.2648-0.2502,0.5245-0.5133,0.7846-0.7776c-0.197,0.3149-0.4135,0.6174-0.6643,0.8955      c-0.1227,0.1425-0.259,0.2715-0.4175,0.3895c-0.0788,0.0562-0.1688,0.1183-0.3096,0.1301      c-0.1309-0.0079-0.2177-0.0512-0.3118-0.101c-0.082-0.0611-0.1907-0.1064-0.2276-0.2768      c-0.0125-0.1482,0.0462-0.2285,0.0847-0.3234c0.0938-0.174,0.2036-0.3266,0.3277-0.4679      C17.53,30.5321,17.8005,30.2766,18.0868,30.0398z" fill="#F6A98D"/></g><g><g><path d="M47.9093,30.7534c-0.0206,0-0.0417-0.004-0.062-0.0123c-0.0841-0.0343-0.1243-0.1302-0.0899-0.2142       c0.1035-0.2531,1.0382-2.4782,1.9713-2.6479c0.0896-0.0166,0.1747,0.043,0.191,0.1322c0.0163,0.0893-0.043,0.1748-0.1322,0.191       c-0.6418,0.1167-1.4635,1.8075-1.7259,2.4491C48.0354,30.7149,47.9741,30.7534,47.9093,30.7534z" fill="#0E151F"/></g></g><g><path d="M49.2667,31.3372c-0.0508,0-0.1016-0.0239-0.1338-0.0688c-0.0527-0.0737-0.0352-0.1763,0.0391-0.229      c1.3662-0.9722,1.165-2.895,1.1631-2.9146c-0.0107-0.0898,0.0547-0.1714,0.1445-0.1816      c0.0908-0.0166,0.1709,0.0547,0.1816,0.144c0.0098,0.0869,0.2285,2.1333-1.2998,3.2197      C49.3331,31.3274,49.2999,31.3372,49.2667,31.3372z" fill="#0E151F"/></g><g><g><path d="M52.7361,33.9909c-0.0843,0-0.1559-0.0644-0.1634-0.1499c-0.0042-0.0479-0.4379-4.7952-2.0792-5.6336       c-0.0807-0.0413-0.1128-0.1403-0.0715-0.221c0.0414-0.0807,0.1403-0.1126,0.2211-0.0715       c1.8022,0.9207,2.2391,5.6948,2.2569,5.8976c0.0079,0.0904-0.0589,0.17-0.1493,0.1779       C52.7457,33.9907,52.7409,33.9909,52.7361,33.9909z" fill="#A4B1BE"/></g></g><g><path d="M50.7023,28.0126c-0.0121,0.3417-0.5618,1.0162-0.9045,1.0283c-0.0996,0.0044-0.3044-0.1237-0.334-0.219      c-0.0624-0.2004,0.2464-0.6045,0.2146-0.8115c-0.0285-0.1916-0.4456-0.4669-0.4096-0.657      c0.0349-0.184,0.4677-0.3872,0.6538-0.3658C50.2424,27.0245,50.7121,27.7082,50.7023,28.0126z" fill="#F7B198"/></g><g><path d="M49.9225,26.9876c0.4092,0.097,0.6827,0.4752,0.8409,0.8663c0.086,0.2433-0.0502,0.4708-0.1506,0.6416      c-0.1137,0.1802-0.2501,0.3428-0.4202,0.4808c-0.0881,0.0651-0.1826,0.1274-0.3078,0.1572      c-0.1453,0.0395-0.2802-0.0405-0.3636-0.1008c-0.0469-0.0371-0.0925-0.072-0.1326-0.1415      c-0.0394-0.0832-0.0301-0.1534-0.0196-0.2118c0.0242-0.1169,0.0716-0.2099,0.1163-0.3015      c0.082-0.1904,0.2059-0.3452,0.0654-0.4964c-0.0914-0.1645-0.2897-0.3129-0.282-0.528      c0.0289,0.2047,0.2358,0.3053,0.3669,0.4626c0.0713,0.0647,0.1389,0.2144,0.1005,0.3275      c-0.0216,0.1111-0.0618,0.2058-0.0961,0.3011c-0.034,0.0939-0.0692,0.1872-0.0848,0.2688      c-0.0143,0.0869,0.0013,0.0924,0.082,0.1573c0.0789,0.0479,0.142,0.0833,0.1992,0.0592c0.0723-0.0185,0.1511-0.07,0.2224-0.1267      c0.2708-0.2205,0.5901-0.5886,0.5427-0.9054c-0.041-0.1784-0.1383-0.3576-0.2485-0.5182      C50.2437,27.2205,50.1188,27.0472,49.9225,26.9876z" fill="#F6A98D"/></g><g><circle cx="36.4984" cy="14.8076" fill="#CF6728" r="0.2543"/></g><g><circle cx="36.4249" cy="16.6461" fill="#CF6728" r="0.2543"/></g><g><circle cx="36.3515" cy="18.4846" fill="#CF6728" r="0.2543"/></g><g><circle cx="36.2781" cy="20.3231" fill="#CF6728" r="0.2543"/></g><g><circle cx="35.9776" cy="22.7961" fill="#CF6728" r="0.2543"/></g><g><circle cx="35.7842" cy="25.269" fill="#CF6728" r="0.2543"/></g><g><circle cx="35.6147" cy="27.742" fill="#CF6728" r="0.2543"/></g><g><circle cx="35.4453" cy="30.215" fill="#CF6728" r="0.2543"/></g><g><circle cx="35.2758" cy="32.6879" fill="#CF6728" r="0.2543"/></g><g><circle cx="34.98" cy="35.1609" fill="#CF6728" r="0.2543"/></g><g><circle cx="34.7255" cy="37.6338" fill="#CF6728" r="0.2543"/></g><g><path d="M43.628,25.0942c-1.0337,0.3548-1.993-1.0633-2.7749-3.0093c0,0,0,0,0-0.0011      c-0.2179-0.5432-0.4216-1.1268-0.61-1.7248V20.358c-0.2103-0.6691-0.4008-1.3568-0.5672-2.0237      c-0.0953-0.3811-0.1829-0.7545-0.2628-1.1148c0,0-0.3658-1.5156-0.6921-3.1473c-0.0263-0.1292-0.0515-0.2595-0.0766-0.3898      c-0.012-0.0613-0.0241-0.1226-0.035-0.184c-0.0427-0.2223-0.0832-0.4446-0.1204-0.6614      c-0.0164-0.092-0.0318-0.1829-0.0471-0.2738c-0.0635-0.3822-0.1172-0.7458-0.1555-1.071      c-0.0383-0.3241-0.0602-0.61-0.0613-0.8355c-0.0011-0.1763,0.0022-0.3439,0.0087-0.5048h0.0011      c0.1194-2.8954,1.3053-3.4265-0.4654-6.4566c-1.4247-2.4387-7.4159-0.68-3.8536,6.5387l-0.0164,0.1018l-1.0907,1.3393      l-1.5507,0.1697c-1.7107-9.3064,3.4687-13.1341,7.6966-9.4695C43.7296,6.5142,44.2402,24.884,43.628,25.0942z" fill="#0E151F"/></g><g><path d="M38.2348,10.1519h-0.0011c-2.1393,1.6519-4.3179,0.0821-4.3179,0.0821      c-3.5623-7.2188,2.4289-8.9775,3.8536-6.5387C39.5401,6.7254,38.3541,7.2565,38.2348,10.1519z" fill="#F7B198"/></g><g><path d="M52.2146,34.133l-0.1544,1.0097l-2.4355,15.9104l-4.9749-2.4782l0.6746-5.2794l0.1818,0.0986      l3.6521,1.025l1.9219-9.1231l0.2957-1.4017C51.3889,33.9337,52.2146,34.133,52.2146,34.133z" fill="#1A1449"/></g><g><polygon fill="#2F285B" points="54.1715,50.9787 49.6247,51.0532 52.0602,35.1427 52.2146,34.133 53.7422,34.04     "/></g><g><polygon fill="#3459A7" points="51.9539,31.1511 51.6221,32.7226 51.3757,33.8932 51.3757,33.8943 51.0801,35.296       49.1582,44.4191 45.5061,43.3942 45.6813,42.9725 50.7023,30.9091     "/></g><g><path d="M53.7422,34.04l-1.5276,0.0931c0,0-0.8257-0.1993-0.8389-0.2387v-0.0011l0.2464-1.1706L53.7422,34.04z" fill="#14103B"/></g><g><path d="M35.9778,14.2376c-0.7961,10.6979-1.6525,20.7168-2.7509,27.9848c-0.012,0.0767-0.023,0.1533-0.035,0.23      c-2.1245-0.4665-6.1555-1.0184-6.611-0.7753c-0.0197,0.0099-0.0318,0.0219-0.0383,0.035v0.0011l-0.0022,0.0022      c0.4402-8.051,1.1247-15.6005,2.3194-22.1053c0.0011-0.0033,0.0022-0.0055,0.0022-0.0088      c0.9396-2.7629,1.2801-5.3341,0.3789-7.5353l3.5678-0.3909c0,0,1.3831,3.5097,1.5648,3.3838      c0.1062-0.0723,0.7545-0.7118,1.279-1.2342l0.0449,0.0876L35.9778,14.2376z" fill="#F06C22"/></g></g><g><path d="M39.3155,65h-4.817v-2.6874h2.1238c0.284,0.5375,2.389,1.2271,2.5918,1.7747     C39.2851,64.28,39.3155,64.6147,39.3155,65z" fill="#0E151F"/></g><g><path d="M32.6729,64.8937l-4.66-1.2197l0.6805-2.5998l2.2492,0.6439c0.1386,0.5919,1.8058,1.6859,1.8634,2.267     C32.8259,64.1894,32.7705,64.5209,32.6729,64.8937z" fill="#0E151F"/></g></g><g><path d="M35.2443,2.6617c0,0,0.8152,3.0257,3.4896,4.4375s1.7274-1.4119,1.7102-1.4635    C40.4268,5.584,38.5845,3.208,38.5845,3.208l-2.2399-1.1364l-1.2381-0.241L35.2443,2.6617z" fill="#0E151F"/></g></g></svg>