<?xml version="1.0" ?><!DOCTYPE svg  PUBLIC '-//W3C//DTD SVG 1.1//EN'  'http://www.w3.org/Graphics/SVG/1.1/DTD/svg11.dtd'><svg enable-background="new 0 0 1200 1200" height="1200px" id="Icon" version="1.1" viewBox="0 0 1200 1200" width="1200px" xml:space="preserve" xmlns="http://www.w3.org/2000/svg" xmlns:xlink="http://www.w3.org/1999/xlink"><g id="Icon_1_"><g><path d="M243.659,622.156l19.098,39.262c0.72,1.477,0.447,3.092-0.606,3.605L216,687.473    c-1.052,0.514-2.491-0.27-3.21-1.748l-19.1-39.262c-0.719-1.479-0.446-3.093,0.606-3.605l46.154-22.449    C241.504,619.895,242.94,620.678,243.659,622.156z" fill="#3498DB"/><g><path d="M239.025,638.054c-5.501-3.729-12.791-4.5-19.202-1.383c-9.54,4.64-13.51,16.13-8.87,25.667     c4.642,9.542,16.133,13.513,25.668,8.873c7.304-3.552,11.345-11.123,10.755-18.76c-0.181-2.337-0.798-4.677-1.883-6.913     C243.969,642.407,241.708,639.877,239.025,638.054z M246.267,652.537c0.558,7.193-3.248,14.324-10.132,17.674     c-8.986,4.369-19.814,0.629-24.184-8.356c-4.372-8.988-0.631-19.813,8.356-24.186c6.039-2.937,12.904-2.212,18.093,1.306     c2.527,1.718,4.661,4.102,6.095,7.049C245.521,648.13,246.097,650.339,246.267,652.537z" fill="#FFFFFF"/><path d="M214.927,642.018c0,0-4.205,3.688-3.458,7.603c0,0,0.521-0.816,0.528-1.298     c0.006-0.482,1.258-0.372,1.399-0.079c0.144,0.29,0.23,0.966,0.23,0.966l1.069,2.198l-0.321,0.159l0.364,0.501     c0,0,0.258,1.435,0.332,1.916c0.078,0.485,0.355,2.869,0.916,3.114c0.56,0.249,1.044,0.091,1.648,0.839     c0.602,0.746,2.311,1.754,2.311,1.754l0.294-0.343l-1.659-1.191c0,0-0.382-0.373,0.258-0.126     c0.641,0.247,2.177,0.779,2.352,1.054c0.174,0.276,0.776,1.103,0.776,1.103s3.431-0.588,3.983-1.018     c0.552-0.428,2.701,0.126,2.701,0.126s1.333,0.11,1.754-0.094c0.418-0.203,0.679-0.329,0.679-0.329l0.47,0.971     c0,0-0.376,2.021,0.698,2.377c1.075,0.358,2.784,1.568,3.319,1.026c0.535-0.541,1.46,4.567,1.46,4.567s0.564,1.125,0.958-0.065     c0.393-1.191,0.787-2.103,1.146-2.437c0.356-0.333,2.187-3.064,1.905-3.727c-0.282-0.661,1.102-0.776,1.102-0.776     s0.041-2.299,0.727-3.272c0.687-0.974,0.452-1.618-0.513-1.468c-0.967,0.148-2.596,0.581-2.596,0.581s-0.215-1.015-1.522-0.579     c-1.307,0.437-2.076,0.089-2.265-0.217c-0.188-0.309-1.243,0.483-1.389,0.596c-0.146,0.11-0.591-0.393-1.046,0.069     c-0.455,0.461-1.167,0.727-1.474,0.996c-0.31,0.271-1.163,1.047-1.986,1.086c-0.825,0.042-1.048-0.25-1.048-0.25     s0.281-0.576-0.153-0.645c-0.434-0.07-1.725,0.398-1.725,0.398s0.215-1.863-0.758-1.149c-0.974,0.713-0.801,1.148-0.801,1.148     l-0.81,0.475c0,0-1.601-0.661-1.446-1.495c0.155-0.836,0.885-1.55,0.885-1.55l1.034-0.584l0.625-1.105l2.303,0.381     c0,0,0.041,0-0.308-0.632c-0.346-0.63-0.403-1.321,0.179-1.604c0.583-0.283,0.977-1.034,0.966-1.55     c-0.01-0.514-0.585-0.794,0.193-1.492c0.779-0.7,0.988-0.684,0.753-1.247c-0.235-0.564-1.008-0.43,0.542-0.942     c1.549-0.515,1.865-1.348,1.865-1.348l-2.233-0.313l0.602-0.572l0.822-0.039l0.521-0.735c0.281,0.744,1.098,1.026,1.309,0.965     c0.209-0.063,0.902-0.199,0.854-0.296c-0.045-0.099-0.963-0.013-1.183-0.545c-0.218-0.533-0.905-1.118-0.905-1.118     s-0.687-0.425-1.325-0.836c-0.638-0.408-1.372-0.851-1.345-0.546c0.029,0.308,0.506,0.873-0.279,0.496     c-0.783-0.379-2.678-0.576-2.654-0.027c0.027,0.546,0.037,1.222,0.223,1.771c0.187,0.548,0.083,1.319-0.229,1.668     c-0.309,0.352-0.432,1.492-0.716,0.829c-0.282-0.662-1.268-1.061-2.364-1.088c-1.096-0.026-1.021-2.664-0.438-2.946     c0.582-0.283,0.813-0.795,1.354-0.26c0.541,0.539,1.028,0.142,0.919-0.165c-0.111-0.308-0.961-0.412-0.569-1.004     c0.394-0.591,0.397-0.993,0.399-1.233c0.004-0.241,0.073-0.756,0.748-0.604c0.673,0.151,0.908,0.719,0.908,0.719l-0.444,0.895     c0,0,0.482,0.085,1.122,0.335c0.641,0.248,1.33,0.431,1.351,0.063c0.02-0.37-0.457-0.938-0.457-0.938l0.056-0.708l-0.657-0.359     l-0.217-0.694c0,0-2.164-0.667-2.421-0.542c-0.261,0.126-1.698,0.786-1.698,0.786s0.687,0.506,0.458,0.777     c-0.229,0.271,0.643,1.486,0.037,1.06c-0.607-0.423-0.768-0.424-0.807-1.164c-0.04-0.741-0.326-1.002-0.649-1.086     c-0.32-0.083-1.095,0.214-1.095,0.214l0.215,0.854c0,0,0.446,0.505,0.443,0.745c-0.003,0.242-0.312,1.152-0.494,1.279     c-0.181,0.129-0.743,0.043-0.723-0.248c0.02-0.288,0.162-0.998,0.08-1.077c-0.085-0.08-0.315-0.647-0.315-0.647l-1.016-0.025     l0.232,0.727l-0.563,0.074l-0.807,0.231c0.382,0.455,0.604,0.828,0.503,0.957c-0.097,0.127,0.176,0.113,0.723,0.167     c0.544,0.056,0.848,0.347,0.59,0.553c-0.261,0.207-0.782,0.94-0.989,0.521c-0.203-0.422-0.749-0.475-1.122-0.414     c-0.37,0.06,0.026,0.708-0.37,0.06c-0.394-0.646,0.708-1.423-0.588-0.553c-1.295,0.869-1.251,1.209-1.457,0.949     C215.507,642.059,214.927,642.018,214.927,642.018z" fill="#FFFFFF"/><path d="M230.997,654.995c0.099-0.129,1.172-1.209,1.572-1.045c0.397,0.165,0.828,0.557,0.406,0.84     c-0.421,0.287-0.699,0.781-0.874,0.427C231.929,654.861,230.997,654.995,230.997,654.995z" fill="#FFFFFF"/><path d="M228.536,655.434c0.767-0.136,1.246,0.272,1.44,0.177c0.194-0.094,0.576,0.28,0.576,0.28     s-0.563,1.062-0.822,0.695c-0.259-0.369-0.443-0.76-0.913-0.57c-0.471,0.188-0.99,0.602-0.825,0.039     C228.16,655.494,228.536,655.434,228.536,655.434z" fill="#FFFFFF"/><path d="M225.32,635.767c0,0,0.99-0.844,2.354-0.669c1.366,0.176,2.399-0.328,2.763,0.256     c0.365,0.584,0.834,0.235,1.783,0.453c0.944,0.221,1.995-0.33,1.871,0.811c-0.124,1.14-0.922,1.966-0.922,1.966l0.683,0.828     c0,0-0.252,1.043-1.195,0.341c-0.94-0.7-1.55-0.885-2.015-1.019s-0.189,1.092-0.465-0.134c-0.274-1.225,0.159-1.237-0.787-1.455     c-0.946-0.22-0.755,0.008-1.251-0.354c-0.494-0.357,0.825-0.52-0.494-0.357s-1.838,0.492-1.898,0.203     c-0.061-0.29-0.027-0.627-0.367-0.422C225.039,636.421,225.32,635.767,225.32,635.767z" fill="#FFFFFF"/><path d="M221.961,636.917c0,0,0.503-0.364,1.294-0.629c0.79-0.266,0.749-0.518,0.968-0.067     c0.218,0.45,0.033,1.301-0.322,1.152c-0.349-0.148-0.079-0.082-0.625-0.135C222.731,637.184,221.961,636.917,221.961,636.917z" fill="#FFFFFF"/><path d="M245.493,645.538c1.085,2.235,1.701,4.579,1.882,6.914c-0.657-0.13-1.439-0.596-1.852-0.966     c-0.782-0.7-1.425-6.624-1.425-6.624l-0.148-0.966l-1.098-1.105c0,0-0.055-0.773-0.152-0.968     c-0.092-0.194-0.588-0.473-0.846-0.428c-0.258,0.048-0.494-0.439-0.697-0.859c-0.206-0.422-0.681-1.069-1.821-1.113     c-0.817-0.033-0.539-0.887-0.314-1.367C241.708,639.878,243.971,642.409,245.493,645.538z" fill="#FFFFFF"/></g></g><g><path d="M226.065,611.14l9.384,8.034c0,0,10.562,3.6,11.39,5.974c0.83,2.372-3.979,10.557-9.249,7.764    c-5.273-2.795-7.005-9.431-7.005-9.431l-9.94-9.462L226.065,611.14z" fill="#ECA7B1"/><path d="M269.939,460.13c0,0-21.02,30.505-41.11,34.04c-20.087,3.534-61.938,69.939-5.765,125.74l13.765-2.602    c0,0-23.438-23.625-14.509-62.5c0,0,20.462,37.203,57.663,46.502C317.184,610.61,269.939,460.13,269.939,460.13z" fill="#2980B9"/><path d="M229.018,483.938c0,0,12.46,25.669,2.23,31.993c-10.229,6.325-23.806-5.765-28.458-12.462    c-4.649-6.697-4.092-16.182-4.092-16.182L229.018,483.938z" fill="#FD9C9D"/><path d="M203.906,491.938c0,0,38.318,7.439,28.273-26.972c0,0-2.604-1.86-6.882,2.418    c-4.277,4.278-30.133-18.042-30.691,14.88c0,0-14.695,21.019,12.277,24.367C206.882,506.632,212.09,503.469,203.906,491.938z" fill="#E74C3C"/></g><g><rect fill="#E67E22" height="324.861" width="234.678" x="893.52" y="464.746"/><rect fill="#F39C12" height="324.861" width="223.183" x="895.141" y="464.746"/><rect fill="#F1C40F" height="324.861" width="250.513" x="854.616" y="464.746"/><circle cx="912.796" cy="525.376" fill="#F39C12" r="18.529"/><circle cx="1030.918" cy="525.376" fill="#F39C12" r="18.529"/><g><path d="M1028.918,533.301c-0.74,15.618-1.478,31.237-2.216,46.854c-0.452,9.543-0.947,19.303-4.552,28.153     c-5.817,14.289-18.806,24.172-31.219,33.336c-4.098,3.021-8.359,6.126-13.34,7.187c-9.848,2.102-19.371-4.185-27.255-10.452     c-9.276-7.372-18.32-15.309-24.89-25.167c-4.596-6.897-7.88-14.591-10.561-22.434c-6.14-17.96-9.226-36.958-9.087-55.937     l7.036-7.57c-0.122,18.979,2.609,37.978,8.047,55.938c2.375,7.843,5.283,15.537,9.354,22.435     c5.819,9.858,13.83,17.793,22.045,25.165c6.983,6.269,15.418,12.555,24.142,10.453c4.41-1.062,8.188-4.162,11.814-7.188     c10.994-9.164,22.496-19.045,27.651-33.335c3.191-8.85,3.633-18.608,4.031-28.152c0.653-15.618,1.308-31.237,1.962-46.855     L1028.918,533.301z" fill="#F39C12"/></g><g><path d="M1030.076,525.388c-0.738,15.618-1.479,31.236-2.217,46.854c-0.449,9.544-0.948,19.303-4.552,28.153     c-5.818,14.29-18.806,24.17-31.218,33.336c-4.097,3.023-8.359,6.124-13.34,7.187c-9.85,2.102-19.373-4.186-27.256-10.454     c-9.274-7.372-18.319-15.307-24.889-25.165c-4.598-6.897-7.882-14.591-10.563-22.435c-6.138-17.96-9.223-36.958-9.087-55.937     l7.037-7.568c-0.121,18.979,2.612,37.977,8.047,55.937c2.374,7.844,5.284,15.538,9.354,22.435     c5.821,9.858,13.832,17.793,22.045,25.166c6.983,6.268,15.417,12.555,24.142,10.453c4.411-1.062,8.187-4.162,11.814-7.188     c10.994-9.164,22.498-19.045,27.649-33.336c3.193-8.85,3.633-18.608,4.032-28.152c0.653-15.619,1.309-31.237,1.962-46.854     L1030.076,525.388z" fill="#F4F2F0"/></g></g><g><path d="M1060.707,603.702c0.259,1.654-3.186,4.09-4.717,4.977c-1.53,0.889-13.271,7.775-15.063,9.063    c-1.775,1.271-8.036,1.147-10.193,0.766c-1.975-0.354-2.572-2.403,2.739-6.047c0.521-0.352,1.087-0.72,1.715-1.103    c7.147-4.333,12.383-15.69,12.383-15.69s1.042-0.198,2.387-0.383c2.235-0.306,5.313-0.566,5.833,0.215    c0.032,0.045,0.047,0.106,0.063,0.167c0.137,0.734,1.193,2.265,2.326,3.827C1059.357,601.147,1060.567,602.848,1060.707,603.702z" fill="#8E44AD"/><path d="M1058.18,599.494c-1.285,1.897-2.725,3.979-3.475,4.853c-1.531,1.775-11.343,7.394-14.281,8.925    c-1.454,0.766-4.347,0.138-6.95-0.812c0.521-0.352,1.087-0.72,1.715-1.103c7.147-4.333,12.383-15.69,12.383-15.69    s1.042-0.198,2.387-0.383l5.833,0.215c0.032,0.045,0.047,0.106,0.063,0.167C1055.99,596.402,1057.047,597.933,1058.18,599.494z" fill="#FFD095"/><path d="M1068.357,440.872c-0.189,0.574-6.503,10.141-10.331,12.246c-3.827,2.104-38.843,23.152-38.843,23.152    s-17.986,8.802-8.993,22.962c8.993,14.159,40.182,48.217,40.182,48.217l1.915-15.307l-7.081-8.418c0,0-0.384-14.733-13.393-23.726    c0,0-7.845-3.828,2.486-5.836c10.333-2.009,34.058-11.577,34.058-11.577l5.169-36.738L1068.357,440.872z" fill="#2C3E50"/><path d="M1092.66,426.711c0,0,12.819,4.593,15.689,13.586c2.87,8.993,5.358,18.559-5.356,26.788    c-10.717,8.227-10.524,24.683-19.519,32.912c-8.993,8.227-13.202,22.769-16.072,25.064c-2.869,2.297,2.106,17.414,0,29.084    c-2.104,11.672-6.122,24.301-6.695,27.745c-0.575,3.444-2.297,16.073-2.297,16.073h-12.246l2.105-60.082    c0,0,2.38-32.337,5.59-37.885c3.21-5.549,5.698-15.308,5.698-15.308l10.906-44.009L1092.66,426.711z" fill="#34495E"/><path d="M976.515,354.604c0,0,3.827,10.92,4.402,12.813c0.573,1.892,1.911,13.373,7.271,16.625    c5.357,3.253,14.926,6.696,16.264,12.055c1.338,5.358,1.338,13.394,0,13.203c-1.338-0.192,6.314,3.252,10.334-7.08    c4.018-10.333,7.077-25.448,6.121-30.424C1019.95,366.822,976.515,354.604,976.515,354.604z" fill="#F1C40F"/><path d="M979.002,352.471c0,0,4.401,12.289,5.548,14.946c1.149,2.657,2.489,8.589,5.359,10.12    c2.869,1.53,5.548,3.253,6.313,4.975s4.211,4.21,6.697,1.722c2.488-2.487,6.861-4.078,8.617-8.61    c1.754-4.533,13.579,10.524,10.9,27.171c-2.68,16.646,11.097-33.294,11.097-33.294l-30.614-20.732L979.002,352.471z" fill="#FEC98D"/><path d="M1064.73,386.017c-0.03-0.03-0.045-0.045-0.075-0.061c-2.587-1.791-15.246-9.629-26.682-11.282    c-1.546-0.644-2.999-0.674-4.347-0.322c-1.929,0.491-3.643,1.746-5.067,3.031c-1.959,1.776-3.367,3.597-4.011,3.597    c-1.531,0-3.458-3.26-4.025-5.158c-0.565-1.929-6.887-6.123-9.751-4.409c-2.878,1.714-7.287,2.113-8.234,0    c-0.949-2.113-10.333-10.133-12.629-11.296c-2.297-1.133-14.16-1.133-14.16-1.133c-9.567-2.297,4.011-16.471,4.011-16.471    s1.73-4.194,3.46-6.491c1.714-2.295,10.716-5.357,13.011-6.321c2.296-0.965,10.517-1.731,20.466,7.454    c9.95,9.185,9.384,6.521,20.467,8.817c11.113,2.296,15.706,10.317,17.234,17.404c1.531,7.088,6.31,13.395,10.318,17.221    c4.025,3.827,9.184-3.245,9.184-3.245C1075.951,387.242,1066.75,386.338,1064.73,386.017z" fill="#F1C40F"/><path d="M1019.95,366.822c-0.958-3.827-13.777-2.105-13.969-2.871c-0.192-0.764-2.488-8.609-4.02-12.246    c-1.528-3.634-10.714-2.87-10.714-2.87s4.593,0,7.654,4.784c3.06,4.784,5.358,13.203,5.166,13.203c-0.191,0,8.037-1.339,10.717,0    C1017.461,368.161,1019.95,366.822,1019.95,366.822z" fill="#F39C12"/><path d="M983.212,342.904c0,0,16.838-6.697,29.467,6.696c12.627,13.395,12.247,16.845,19.517,15.119    c7.272-1.725,7.463-3.064,7.463-3.064s1.338,5.783-2.87,5.762c-4.21-0.021-10.715,3.805-20.475-8.249    c-9.757-12.055-14.352-14.16-19.325-14.734C992.014,343.86,983.212,342.904,983.212,342.904z" fill="#F39C12"/><path d="M984.55,340.034c0,0,9.57-8.133,22.771,1.196c13.203,9.328,18.561,14.167,22.771,13.374    c4.209-0.793,12.437,2.268,13.395,4.755c0.957,2.488,2.679,15.882,7.271,19.134c4.593,3.253,9.567,4.019,9.567,4.019    s-8.42-4.975-9.567-9.376c-1.148-4.4-0.191-16.646-13.778-20.855c-13.584-4.209-10.714-0.518-14.54-3.512    c-3.827-2.995-20.476-15.432-25.831-14.092C991.248,336.015,984.55,340.034,984.55,340.034z" fill="#F39C12"/><path d="M1043.485,435.322c0,0-3.896,10.842-7.499,16.583c-3.6,5.74-7.043,12.628-7.043,12.628    s-8.037,1.404-9.951,4.082c-1.912,2.679-6.122,11.099-6.122,11.099s0.767,1.275,1.531,0.893c0.764-0.384,5.867-8.42,6.632-8.42    c0.768,0,4.848-0.893,4.785-0.383c-0.065,0.51-4.53,6.378-4.146,6.378c0.383,0,3.828-0.765,5.104-2.551    c1.274-1.785,14.922-17.221,16.07-18.497c1.149-1.276,10.462-11.735,10.843-12.5c0.384-0.766,0-8.292,0-8.292L1043.485,435.322z" fill="#FACB93"/><polygon fill="#B0B5B7" points="945.519,459.177 979.449,459.177 979.449,462.875 940.543,461.983   "/><polygon fill="#BDC3C7" points="918.603,415.295 928.551,415.933 949.727,460.452 940.925,461.345   "/><polygon fill="#B0B5B7" points="925.362,423.205 929.572,423.205 938.374,440.298 934.93,440.872   "/><path d="M1035.575,432.517c0,0,2.297,5.868-3.953,11.353c-6.251,5.485-28.702,16.71-28.702,16.71    s-14.542,2.935-17.73,2.169s-8.036,0.126-8.036,0.126s5.611-5.611,7.269-6.25c1.659-0.637,0.512-2.679-1.528-1.658    c-2.041,1.021-5.614,2.678-4.467,1.147c1.148-1.53,4.722-3.571,6.763-3.699c2.041-0.128,8.931,0,11.098,1.275    c2.168,1.276,21.558-12.118,23.598-13.394c2.043-1.276,8.038-7.781,8.038-7.781H1035.575z" fill="#FACB93"/><path d="M1028.178,385.19c0,0-5.74,15.402-6.506,19.646c-0.766,4.244,2.297,15.246,7.398,15.56    C1034.173,420.712,1028.178,385.19,1028.178,385.19z" fill="#E3E4DE"/><path d="M1065.298,399.35c-1.147-4.592-18.951-19.7-26.206-24.109c-0.384-0.229-0.749-0.414-1.118-0.566    c11.436,1.653,24.095,9.491,26.682,11.282c0.03,0.015,0.045,0.03,0.075,0.061c-0.245-0.03-0.382-0.061-0.382-0.061    C1069.509,390.364,1066.445,403.942,1065.298,399.35z" fill="#F1C40F"/><path d="M1098.852,427.791c-3.444,4.088-34.824,20.543-34.824,20.543l-9.567-15.952v6.767l-11.481-0.889    l-1.406-21.43l-4.716,18.231l-11.036-0.888c0,0,0.948-33.294,0.061-45.923c-0.381-5.511,0.996-8.847,2.679-10.868    c2.175-2.632,4.854-3.031,4.854-3.031h0.214c1.408-0.015,2.861,0.093,4.347,0.322c0.369,0.152,0.734,0.337,1.118,0.566    c7.255,4.409,25.059,19.517,26.206,24.109c1.147,4.593,4.211-8.985-0.949-13.394c0,0,0.137,0.03,0.382,0.061    c3.001,2.327,10.963,23.237,17.666,31.702C1089.148,426.26,1102.295,423.719,1098.852,427.791z" fill="#EFF0EA"/></g><g><path d="M853.179,263.852c-12.314-12.318-28.15-18.96-44.265-19.937l0.014,11.116l-0.016,0.018l-0.003,1.374    c12.912,0.957,25.565,6.383,35.438,16.259c10.1,10.105,15.529,23.093,16.298,36.305l12.517,0.017    C872.373,292.585,865.717,276.396,853.179,263.852z" fill="#E74C3C"/><path d="M877.293,239.744c-18.984-18.992-43.569-28.982-68.425-29.967l0.014,12.488    c21.666,0.992,43.037,9.759,59.579,26.308c16.759,16.767,25.541,38.496,26.32,60.457l12.48,0.024    C906.483,283.882,896.496,258.956,877.293,239.744z" fill="#E74C3C"/><path d="M901.443,215.602c-25.656-25.668-58.987-39.007-92.613-40.002l0.021,12.496    c30.436,1.002,60.545,13.112,83.76,36.336c23.441,23.451,35.554,53.942,36.332,84.667l12.497,0.009    C940.661,275.186,927.328,241.497,901.443,215.602z" fill="#E74C3C"/></g><g><path d="M853.049,789.607H293.776c-12.838,0-23.244-10.407-23.244-23.243V411.981    c0-12.837,10.406-23.245,23.244-23.245h559.273c12.838,0,23.245,10.407,23.245,23.245v354.383    C876.294,779.2,865.887,789.607,853.049,789.607z" fill="#34495E"/><rect fill="#ECF0F1" height="332.575" width="469.167" x="341.145" y="422.884"/><path d="M484.533,724.49h-55.816c-3.774,0-6.835-3.062-6.835-6.835V666.47c0-3.773,3.061-6.834,6.835-6.834h55.816    c3.775,0,6.835,3.061,6.835,6.834v51.186C491.368,721.429,488.309,724.49,484.533,724.49z" fill="#BDC3C7"/><path d="M484.533,638.445h-96.349c-3.774,0-6.833-3.06-6.833-6.835V502.025c0-3.775,3.06-6.834,6.833-6.834h96.349    c3.775,0,6.835,3.06,6.835,6.834V631.61C491.368,635.386,488.309,638.445,484.533,638.445z" fill="#F1C40F"/><path d="M733.52,511.403H524.837c-3.775,0-6.833-3.06-6.833-6.834v-2.544c0-3.775,3.058-6.834,6.833-6.834H733.52    c3.773,0,6.833,3.06,6.833,6.834v2.544C740.353,508.344,737.293,511.403,733.52,511.403z" fill="#3498DB"/><path d="M733.52,541.514H524.837c-3.775,0-6.833-3.061-6.833-6.834v-2.545c0-3.775,3.058-6.833,6.833-6.833H733.52    c3.773,0,6.833,3.059,6.833,6.833v2.545C740.353,538.453,737.293,541.514,733.52,541.514z" fill="#3498DB"/><path d="M687.195,573.94H524.837c-3.775,0-6.833-3.06-6.833-6.834v-2.545c0-3.775,3.058-6.834,6.833-6.834h162.358    c3.775,0,6.834,3.06,6.834,6.834v2.545C694.029,570.88,690.971,573.94,687.195,573.94z" fill="#E74C3C"/><path d="M725.414,637.705H524.837c-3.775,0-6.833-3.06-6.833-6.835v-24.166c0-3.773,3.058-6.834,6.833-6.834    h200.577c3.771,0,6.833,3.061,6.833,6.834v24.166C732.247,634.646,729.186,637.705,725.414,637.705z" fill="#E67E22"/><path d="M565.597,724.49h-55.814c-3.775,0-6.833-3.062-6.833-6.835V666.47c0-3.773,3.058-6.834,6.833-6.834h55.814    c3.777,0,6.835,3.061,6.835,6.834v51.186C572.432,721.429,569.374,724.49,565.597,724.49z" fill="#BDC3C7"/><path d="M646.664,724.49h-55.816c-3.775,0-6.835-3.062-6.835-6.835V666.47c0-3.773,3.06-6.834,6.835-6.834h55.816    c3.773,0,6.835,3.061,6.835,6.834v51.186C653.499,721.429,650.438,724.49,646.664,724.49z" fill="#BDC3C7"/><path d="M727.728,724.49h-55.814c-3.775,0-6.835-3.062-6.835-6.835V666.47c0-3.773,3.06-6.834,6.835-6.834h55.814    c3.775,0,6.835,3.061,6.835,6.834v51.186C734.563,721.429,731.503,724.49,727.728,724.49z" fill="#BDC3C7"/><rect fill="#BDC3C7" height="51.075" width="469.167" x="341.145" y="422.884"/><rect fill="#F5F8FA" height="26.13" width="185.809" x="584.914" y="435.357"/><path d="M384.753,457.627h-3.33c-4.943,0-8.952-4.007-8.952-8.95v-3.332c0-4.943,4.009-8.95,8.952-8.95h3.33    c4.943,0,8.949,4.007,8.949,8.95v3.332C393.702,453.62,389.696,457.627,384.753,457.627z" fill="#9B59B6"/><path d="M410.231,457.627h-3.333c-4.943,0-8.949-4.007-8.949-8.95v-3.332c0-4.943,4.006-8.95,8.949-8.95h3.333    c4.943,0,8.949,4.007,8.949,8.95v3.332C419.181,453.62,415.174,457.627,410.231,457.627z" fill="#3498DB"/><path d="M435.71,457.627h-3.334c-4.941,0-8.949-4.007-8.949-8.95v-3.332c0-4.943,4.007-8.95,8.949-8.95h3.334    c4.943,0,8.949,4.007,8.949,8.95v3.332C444.659,453.62,440.653,457.627,435.71,457.627z" fill="#2ECC71"/><path d="M596.752,457.225L596.752,457.225c-4.745,0-8.591-3.846-8.591-8.59l0,0c0-4.745,3.847-8.591,8.591-8.591    l0,0c4.746,0,8.59,3.847,8.59,8.591l0,0C605.343,453.379,601.498,457.225,596.752,457.225z" fill="#BDC3C7"/><path d="M304.21,661.149h4.799c7.12,0,12.892-5.77,12.892-12.891V530.086c0-7.12-5.772-12.893-12.892-12.893    h-4.799c-7.12,0-12.894,5.772-12.894,12.893v118.172C291.316,655.38,297.09,661.149,304.21,661.149z" fill="#2C3E50"/><path d="M836.925,573.879h4.799c7.12,0,12.893,5.773,12.893,12.893v4.8c0,7.121-5.772,12.893-12.893,12.893h-4.799    c-7.12,0-12.893-5.771-12.893-12.893v-4.8C824.032,579.652,829.805,573.879,836.925,573.879z" fill="#F5F8FA"/><path d="M836.925,573.879h4.799c7.12,0,12.893,5.773,12.893,12.893v4.8c0,7.121-5.772,12.893-12.893,12.893h-4.799    c-7.12,0-12.893-5.771-12.893-12.893v-4.8C824.032,579.652,829.805,573.879,836.925,573.879z" fill="#2C3E50"/><polygon fill="#7F8C8D" points="400.249,692.329 399.942,715.49 392.953,703.814 385.966,692.14 393.262,680.654 400.558,669.17       "/><polygon fill="#7F8C8D" points="754.54,692.329 754.85,715.49 761.836,703.814 768.825,692.14 761.53,680.654 754.234,669.17       "/><path d="M475.135,580.098c-0.168-11.075-10.908-28.695-12.251-30.876c-1.342-2.182-12.921-5.035-12.921-5.035    c7.047-28.358-13.604-33.953-13.604-33.953s-20.654,5.594-13.605,33.953c0,0-11.579,2.853-12.921,5.035    c-1.342,2.181-12.083,19.801-12.25,30.876c-0.168,11.076,1.007,35.072,1.007,35.072s6.041-1.007,6.881-2.686l1.007-30.509    c0,0,3.69-11.442,8.054-16.141c0,0,1.674,22.15,2.432,24.836c0,0-5.122,29.439,0,30.381c5.119,0.943,19.396,2.351,19.396,2.351    s14.275-1.407,19.396-2.351c5.12-0.941,0-30.381,0-30.381c0.757-2.686,2.432-24.836,2.432-24.836    c4.362,4.699,8.054,16.141,8.054,16.141l1.007,30.509c0.838,1.679,6.88,2.686,6.88,2.686S475.302,591.173,475.135,580.098z" fill="#E74C3C"/><ellipse cx="429.939" cy="548.969" fill="#F7DA5E" rx="0.783" ry="1.119"/><ellipse cx="442.121" cy="548.969" fill="#F7DA5E" rx="0.782" ry="1.119"/><path d="M447.604,527.708L447.604,527.708c-0.154-4.892-3.154-9.47-11.691-12.3    c-8.541,2.83-11.54,7.408-11.693,12.301l-0.001-0.001c0,0-3.142,11.193,11.695,21.765    C450.749,538.9,447.604,527.708,447.604,527.708z" fill="#C0392B"/></g><g><polygon fill="#2ECC71" points="796.608,308.084 830.378,308.084 881.782,408.591 840.67,408.591   "/><polygon fill="#ECF0F1" points="762.837,308.084 796.608,308.084 840.67,408.591 799.555,408.591   "/><polygon fill="#2ECC71" points="729.066,308.084 762.837,308.084 799.555,408.591 758.44,408.591   "/><polygon fill="#ECF0F1" points="695.297,308.084 729.066,308.084 758.44,408.591 717.327,408.591   "/><polygon fill="#2ECC71" points="661.525,308.084 695.297,308.084 717.327,408.591 676.213,408.591   "/><polygon fill="#ECF0F1" points="627.756,308.084 661.525,308.084 676.213,408.591 635.101,408.591   "/><polygon fill="#2ECC71" points="593.987,308.084 627.756,308.084 635.101,408.591 593.987,408.591   "/><polygon fill="#ECF0F1" points="560.214,308.084 593.987,308.084 593.987,408.591 552.871,408.591   "/><polygon fill="#2ECC71" points="526.445,308.084 560.214,308.084 552.871,408.591 511.758,408.591   "/><polygon fill="#ECF0F1" points="492.675,308.084 526.445,308.084 511.758,408.591 470.645,408.591   "/><polygon fill="#2ECC71" points="458.902,308.084 492.675,308.084 470.645,408.591 429.53,408.591   "/><polygon fill="#ECF0F1" points="425.133,308.084 458.902,308.084 429.53,408.591 388.416,408.591   "/><polygon fill="#2ECC71" points="391.364,308.084 425.133,308.084 388.416,408.591 347.302,408.591   "/><polygon fill="#ECF0F1" points="357.594,308.084 391.364,308.084 347.302,408.591 306.188,408.591   "/><polygon fill="#2ECC71" points="323.822,308.084 357.594,308.084 306.188,408.591 265.074,408.591   "/><path d="M861.445,440.043h0.002c11.541,0,20.823-9.577,20.564-21.219l-0.229-10.234H840.67l0.211,11.099    C841.096,430.994,850.24,440.043,861.445,440.043z" fill="#2ECC71"/><path d="M820.296,440.043h0.007c11.513,0,20.784-9.536,20.563-21.152l-0.195-10.301h-41.115l0.176,11.032    C799.909,430.954,809.064,440.043,820.296,440.043z" fill="#ECF0F1"/><path d="M779.147,440.043h0.008c11.486,0,20.748-9.495,20.565-21.086l-0.166-10.367H758.44l0.141,10.965    C758.726,430.914,767.891,440.043,779.147,440.043z" fill="#2ECC71"/><path d="M737.998,440.043h0.01c11.462,0,20.713-9.454,20.565-21.019l-0.133-10.434h-41.113l0.104,10.899    C717.54,430.874,726.715,440.043,737.998,440.043z" fill="#ECF0F1"/><path d="M696.85,440.043h0.012c11.436,0,20.676-9.414,20.564-20.953l-0.099-10.5h-41.114l0.068,10.833    C676.354,430.833,685.541,440.043,696.85,440.043z" fill="#2ECC71"/><path d="M655.702,440.043h0.011c11.41,0,20.642-9.373,20.567-20.886l-0.067-10.567h-41.112l0.032,10.766    C635.171,430.792,644.368,440.043,655.702,440.043z" fill="#ECF0F1"/><path d="M614.553,440.043h0.012c11.388,0,20.604-9.332,20.568-20.819l-0.032-10.633h-41.114v10.699    C593.987,430.752,603.194,440.043,614.553,440.043z" fill="#2ECC71"/><path d="M573.407,440.043h0.011c11.359,0,20.569-9.292,20.569-20.753v-10.699h-41.116l-0.032,10.633    C552.8,430.711,562.021,440.043,573.407,440.043z" fill="#ECF0F1"/><path d="M532.258,440.043h0.012c11.334,0,20.53-9.251,20.566-20.687l0.035-10.766h-41.113l-0.068,10.567    C511.617,430.67,520.847,440.043,532.258,440.043z" fill="#2ECC71"/><path d="M491.11,440.043h0.012c11.308,0,20.493-9.21,20.566-20.62l0.07-10.833h-41.114l-0.102,10.5    C470.435,430.63,479.675,440.043,491.11,440.043z" fill="#ECF0F1"/><path d="M449.963,440.043h0.009c11.282,0,20.458-9.17,20.566-20.553l0.106-10.899H429.53l-0.133,10.434    C429.251,430.589,438.5,440.043,449.963,440.043z" fill="#2ECC71"/><path d="M408.817,440.043h0.008c11.256,0,20.42-9.13,20.566-20.487l0.14-10.965h-41.114l-0.165,10.367    C388.067,430.548,397.329,440.043,408.817,440.043z" fill="#ECF0F1"/><path d="M367.669,440.043h0.006c11.23,0,20.384-9.089,20.564-20.42l0.176-11.032h-41.114l-0.197,10.301    C346.883,430.507,356.157,440.043,367.669,440.043z" fill="#2ECC71"/><path d="M326.523,440.043h0.003c11.205,0,20.348-9.049,20.563-20.354l0.212-11.099h-41.114l-0.228,10.234    C305.701,430.466,314.985,440.043,326.523,440.043z" fill="#ECF0F1"/><path d="M285.377,440.043L285.377,440.043c11.179,0,20.313-9.01,20.562-20.287l0.249-11.166h-41.114l-0.258,10.167    C264.521,430.425,273.81,440.043,285.377,440.043z" fill="#2ECC71"/><rect fill="#2ECC71" height="15.751" width="33.772" x="323.822" y="292.333"/><rect fill="#ECF0F1" height="15.751" width="33.77" x="357.594" y="292.333"/><rect fill="#2ECC71" height="15.751" width="33.77" x="391.364" y="292.333"/><rect fill="#ECF0F1" height="15.751" width="33.769" x="425.133" y="292.333"/><rect fill="#2ECC71" height="15.751" width="33.773" x="458.902" y="292.333"/><rect fill="#ECF0F1" height="15.751" width="33.77" x="492.675" y="292.333"/><rect fill="#2ECC71" height="15.751" width="33.769" x="526.445" y="292.333"/><rect fill="#ECF0F1" height="15.751" width="33.773" x="560.214" y="292.333"/><rect fill="#2ECC71" height="15.751" width="33.769" x="593.987" y="292.333"/><rect fill="#ECF0F1" height="15.751" width="33.77" x="627.756" y="292.333"/><rect fill="#2ECC71" height="15.751" width="33.771" x="661.525" y="292.333"/><rect fill="#ECF0F1" height="15.751" width="33.77" x="695.297" y="292.333"/><rect fill="#2ECC71" height="15.751" width="33.771" x="729.066" y="292.333"/><rect fill="#ECF0F1" height="15.751" width="33.77" x="762.837" y="292.333"/><rect fill="#2ECC71" height="15.751" width="33.771" x="796.606" y="292.333"/></g><g><g><path d="M551.004,620.021c-1.308-0.136-2.608-0.312-3.898-0.525c-1.289-0.214-2.619-0.541-3.989-0.983l2.388-23.144     c1.124-0.093,2.342-0.124,3.662-0.091c1.32,0.03,2.542,0.104,3.669,0.221c1.514,0.157,2.897,0.409,4.15,0.759     c1.25,0.35,2.312,0.835,3.173,1.457c0.864,0.625,1.51,1.392,1.938,2.306c0.428,0.916,0.576,2.003,0.447,3.266     c-0.195,1.907-1.272,3.316-3.22,4.228c1.454,0.73,2.409,1.618,2.858,2.662s0.61,2.186,0.482,3.426     c-0.258,2.503-1.365,4.292-3.321,5.365C557.386,620.041,554.608,620.392,551.004,620.021z M549.81,604.931l2.617,0.271     c1.653,0.17,2.856,0.077,3.612-0.273c0.755-0.35,1.183-0.997,1.28-1.938c0.1-0.966-0.199-1.682-0.892-2.146     c-0.694-0.465-1.753-0.772-3.178-0.919c-0.459-0.048-0.952-0.092-1.481-0.136c-0.529-0.042-1.005-0.063-1.42-0.059     L549.81,604.931z M549.388,609.029l-0.637,6.165c0.385,0.086,0.807,0.165,1.261,0.234c0.458,0.07,0.964,0.134,1.514,0.189     c1.607,0.167,2.928,0.071,3.963-0.286c1.034-0.358,1.615-1.157,1.744-2.396c0.113-1.103-0.219-1.932-0.996-2.487     c-0.778-0.556-1.938-0.912-3.474-1.071L549.388,609.029z"/><path d="M575.507,622.721c-1.675-0.172-3.098-0.557-4.264-1.154c-1.172-0.594-2.107-1.353-2.811-2.272     c-0.708-0.919-1.19-1.979-1.45-3.177c-0.258-1.199-0.317-2.499-0.173-3.899l1.53-14.844l5.373,0.555l-1.484,14.395     c-0.1,0.966-0.076,1.797,0.073,2.498c0.148,0.698,0.39,1.281,0.723,1.743c0.335,0.466,0.766,0.817,1.286,1.057     c0.52,0.238,1.103,0.392,1.747,0.458c1.309,0.134,2.409-0.156,3.309-0.878c0.899-0.719,1.448-2.042,1.645-3.971l1.486-14.396     l5.371,0.553l-1.531,14.843c-0.146,1.4-0.47,2.665-0.981,3.798c-0.512,1.13-1.211,2.072-2.1,2.828     c-0.892,0.755-1.983,1.299-3.268,1.631C578.7,622.817,577.205,622.896,575.507,622.721z"/><path d="M600.764,610.61c1.131-1.527,2.218-3.057,3.261-4.593c1.042-1.534,2.016-3.09,2.919-4.662l5.926,0.61     c-1.575,2.438-3.185,4.789-4.836,7.056c-1.649,2.265-3.379,4.535-5.191,6.808l-0.941,9.126l-5.372-0.555l0.936-9.057     c-1.31-2.594-2.549-5.183-3.708-7.763c-1.162-2.578-2.265-5.221-3.309-7.926l6.236,0.642c0.56,1.724,1.186,3.445,1.865,5.157     C599.23,607.165,599.967,608.887,600.764,610.61z"/></g><g><polygon fill="#FBB599" points="641.762,996.107 651.185,1007.208 656.736,1002.174 650.41,989.007    "/><path d="M589.741,1011.477c0,0-9.294-3.882-14.201-1.687c-4.903,2.194-20.266-2.322-17.038,6.713     c3.227,9.036,32.658,3.872,33.173,2.324C592.193,1017.275,592.825,1012.553,589.741,1011.477z" fill="#061977"/><polygon fill="#FBB599" points="577.994,999.465 578.639,1009.79 589.869,1012.63 589.869,998.107    "/><path d="M567.149,822.487c0,0-13.079,83.991,10.329,179.687h14.198V872.058c0,0,3.099,4.903,6.456,23.232     c3.355,18.332,4.131,27.109,5.679,31.499c1.55,4.388,38.726,72.286,38.726,72.286l12.135-5.679c0,0-18.849-57.313-26.592-68.673     c-7.746-11.359,5.679-68.159-7.746-98.106C606.909,796.67,567.149,822.487,567.149,822.487z" fill="#D35400"/><path d="M541.333,653.9c0,0-0.129-13.683,0-14.715c0.129-1.033-8.26-18.589,0-20.654     c8.262-2.065,15.749-1.292,8.65,21.558l-0.388,15.749L541.333,653.9z" fill="#FBB599"/><path d="M588.874,651.964c0,0-0.108-11.305,0-12.157c0.106-0.854-6.828-15.36,0-17.065     c6.824-1.707,13.011-1.068,7.145,17.811l-0.32,13.014L588.874,651.964z" fill="#FBB599"/><path d="M584.19,699.855c0,0-6.97,26.333,11.488,28.271c18.459,1.937,15.49-24.655,15.49-24.655L584.19,699.855z" fill="#FBB599"/><path d="M600.197,684.364l-3.615-34.852l-9.467,1.03l1.894,40.965l11.188,32.185l-3.788,8.79     c0,0-42.167-13.608-44.062-46.481c-1.892-32.876-1.892-32.876-1.892-32.876l-9.812-0.342c0,0-5.678,31.841,0,53.7     c5.681,21.856,28.457,35.454,28.513,56.279c0.058,20.827-1.49,48.193-1.49,48.193s-15.021,20.654,6.947,26.677     c21.969,6.025,46.065,2.409,50.366-6.711c4.305-9.123-5.678-19.105-8.604-26.853c-2.926-7.743-5.68-97.761-5.68-97.761     L600.197,684.364z" fill="#E74C3C"/><path d="M623.174,702.053c0,0-1.807-25.174-22.719-22.336c-20.912,2.842-23.75,21.945-9.037,35.371     c14.717,13.425-17.813,20.395-16.78,37.178c1.032,16.78,8.777,11.874,15.49,20.138c6.712,8.26,24.526,16.78,33.046,11.357     c8.519-5.42,17.04-15.747,10.843-33.302C627.821,732.9,620.85,730.066,623.174,702.053z" fill="#F1C40F"/><path d="M651.96,998.947c0,0-23.881,16.136-18.589,23.881c5.293,7.745,28.656-15.36,25.043-20.654     C654.8,996.883,651.96,998.947,651.96,998.947z" fill="#061977"/></g></g><g><polygon fill="#FF8A83" points="848.205,985.094 853.77,1004.078 861.668,995.786 857.55,981.728   "/><path d="M867.865,1007.261c0,0-35.069,9.976-35.473,10.244c0,0,10.964-7.149,11.748-8.247    c0.776-1.087,6.9-12.954,6.9-12.954s11.302-2.766,11.579-2.922L867.865,1007.261z" fill="#743DB6"/><path d="M867.865,1007.261l1.211,4.131l-35.537,10.026l-1.146-3.913    C832.796,1017.236,867.865,1007.261,867.865,1007.261z" fill="#BDC3C7"/><polygon fill="#FF8A83" points="806.524,981.12 809.645,1000.074 818.237,993.013 815.928,978.979   "/><path d="M822.855,1004.808c0,0-34.98,5.47-35.399,5.68c0,0,11.41-5.595,12.295-6.559    c0.877-0.957,8.181-11.672,8.181-11.672s11.223-1.33,11.507-1.445L822.855,1004.808z" fill="#743DB6"/><path d="M822.855,1004.808l0.677,4.124l-35.435,5.463l-0.642-3.907    C787.875,1010.277,822.855,1004.808,822.855,1004.808z" fill="#BDC3C7"/><g><path d="M688.454,735.756l-19.568,55.339c-0.737,2.085-0.131,4.2,1.355,4.725l65.051,23.005     c1.485,0.524,3.288-0.738,4.023-2.822l19.57-55.339c0.737-2.084,0.131-4.2-1.355-4.725l-65.053-23.005     C690.993,732.409,689.19,733.674,688.454,735.756z" fill="#2ECC71"/><g><path d="M694.59,754.507l1.791,23.37l22.581,7.984l15.143-17.381l8.223,2.908l1.665-4.705l-11.516-4.071      l-3.547,4.04L694.59,754.507z M700.208,761.785l24.707,8.737l-7.032,9.41l-17.406-6.153L700.208,761.785z" fill="#FFFFFF"/><circle cx="714.747" cy="791.792" fill="#FFFFFF" r="3.991"/><path d="M690.756,783.308c-0.735,2.079,0.354,4.359,2.432,5.093c2.079,0.737,4.359-0.354,5.095-2.43      c0.735-2.081-0.354-4.361-2.433-5.097C693.771,780.141,691.491,781.229,690.756,783.308z" fill="#FFFFFF"/></g></g><path d="M797.127,708.615l1.512,4.264l0.895,2.549l11.016,9.361l4.753,12.668l0.47,1.265l6.649-1.062l2.363-0.387    l-0.079-0.285l-7.486-29.025l-16.154-3.795l-2.529-0.591l-0.856-0.204c0,0,0,0.041,0,0.103c-0.043,0.366-0.205,1.752-0.368,3.507    C797.25,707.493,797.188,708.045,797.127,708.615z" fill="#FD9C9D"/><path d="M822.147,825.579c0,0-44.192,54.052-34.335,91.106c9.858,37.056,16.451,65.271,16.451,65.271h15.505    c0,0-9.858-42.496-12.918-59.832c-3.06-17.338-1.358-27.876,15.297-50.992C838.807,848.015,822.147,825.579,822.147,825.579z" fill="#8E44AD"/><path d="M817.899,818.95c0,0-6.971,62.041-6.801,70.879s-7.308,15.297,35.186,98.247h16.997    c0,0-22.438-58.474-24.475-71.391c-2.041-12.919-11.219-25.496,6.799-56.093c18.018-30.595,13.228-42.833,8.483-52.691    C849.344,798.043,817.899,818.95,817.899,818.95z" fill="#9B59B6"/><path d="M805.652,765.3c0.796-7.712,4.082-13.158,4.082-13.158l0.814-14.44l1.796-0.08l2.957-0.164l6.771-0.348    l2.632-0.121l2.711-0.144c0,0,20.398,6.629,21.765,9.669c0.837,1.918,1.366,10.809,1.756,20.905    c0.244,5.998,0.427,12.423,0.609,18.051c0.511,15.117,5.446,21.071,0,26.336c-5.425,5.28-33.654,7.137-33.654,7.137    s2.896-8.505-0.223-19.562c-1.163-4.1-3.144-8.566-6.406-13.072c-0.469-0.634-0.897-1.265-1.284-1.92    C805.776,777.66,805.062,770.887,805.652,765.3z" fill="#E74C3C"/><path d="M807.965,760.478c0,0-7.064,18.188-7.234,20.227c-0.17,2.041-31.273-1.698-35.694-4.589    c-4.42-2.889-14.958-14.107-18.697-14.447c-3.739-0.341,3.909,8.401,5.608,9.214c1.701,0.814-0.679,10.406-0.679,10.406    s46.063,16.415,50.992,15.903c4.929-0.509,15.297-18.352,15.297-18.352L807.965,760.478z" fill="#FF7F85"/><path d="M840.505,765.578c0,0,5.609-14.279-3.739-18.358c-9.35-4.078-13.768,11.049-13.768,11.049    s-13.258,28.556-17.168,32.634c-3.909,4.082-26.175,15.809-49.972,19.887c0,0-10.71-2.719-13.259-5.098    c-2.55-2.38-4.759-3.74-5.439-2.72c-0.68,1.021-1.02,3.231,3.568,7.817c4.59,4.592-15.808,0-15.808,0s3.569,9.012,16.319,11.391    c12.748,2.379,64.252-8.159,71.39-16.318C819.769,797.703,840.505,765.578,840.505,765.578z" fill="#FD9C9D"/><path d="M796.311,717.814c0,1.691,4.081,1.875,4.081,1.875s1.611,16.318,11.299,12.994l0.654,4.938l2.957-0.164    l-4.753-12.668l-11.016-9.361l-2.406-6.813C796.762,712.348,796.311,716.854,796.311,717.814z" fill="#FD9C9D"/><path d="M812.976,678.896c14.952,0.673,25.823,8.834,26.68,28.211l1.366,6.79c0,0,36.714,34.166,22.602,49.138    c-7.16,7.587-10.831,6.896-12.687,4.385c-1.815-2.445-1.939-6.609-1.939-6.609l-2.367-8.483c0,0-2.283-0.124-5.608-1.102    c-2.651-0.775-5.996-2.102-9.402-4.387c-3.183-2.12-6.426-5.078-9.198-9.178c-0.123-0.182-0.246-0.367-0.348-0.551    c-2.692-4.078-4.916-9.26-6.22-15.808c0,0-8.426-3.876-14.789-9.994c-1.388-1.346-2.673-2.794-3.754-4.325    c-0.061,0.511-0.122,1.063-0.184,1.633c-0.101,1.081-0.225,2.244-0.326,3.345c-0.264,2.713-0.49,5.181-0.49,5.854    c0,1.691,4.081,1.875,4.081,1.875s1.611,16.318,11.299,12.994l0.654,4.938l-1.796,0.08l-0.814,14.44c0,0-3.286,5.446-4.082,13.158    c-3.587-2.224-9.299-8.507-5.936-27.599c0,0-2.386-15.971-10.706-24.476C780.666,704.719,798.005,678.204,812.976,678.896z" fill="#F1C40F"/></g><g><path d="M335.591,870.335c-0.061,0.354-0.776,10.75-0.776,10.75l-6.059-0.324l-0.391-11.076L335.591,870.335z" fill="#FCECD9"/><path d="M336.282,875.592l12.833,2.796c0,0,2.044,2.635-8.792,3.076c-10.835,0.442-12.993,1.374-13.053-3.816    S336.282,875.592,336.282,875.592z" fill="#2C3E50"/><path d="M215.364,864.431c-0.356-0.056-10.761-0.609-10.761-0.609l0.23-6.063l11.068-0.563L215.364,864.431z" fill="#FCECD9"/><path d="M210.116,865.204l-2.597,12.874c0,0-2.6,2.085-3.211-8.742c-0.611-10.828-1.575-12.969,3.613-13.109    C213.109,856.085,210.116,865.204,210.116,865.204z" fill="#2C3E50"/><path d="M324.725,671.649l2.539,13.049l2.718,4.893l-3.443,1.27c0,0,4.711,20.117-15.044,15.767l-3.442,17.943    l-16.131-18.85l3.082-28.453L324.725,671.649z" fill="#FD9C9D"/><path d="M312.221,657.695c0,0,31.715,12.867,8.335,22.835c-23.377,9.968-21.746-0.905-21.746-0.905    c4.899,17.936,2.462,29.976-0.728,37.695c-7.545,18.277-32.453,44.221-29.839,52.376c0.146,0.458,0.874,2.403,0.24,4.59    c-0.813,2.807-3.435,4.53-5.556,5.559c-13.467-2.697-23.283-10.268-24.448-19.112c-0.535-4.066,0.874-7.531,1.25-8.435    c7.429-17.941,20.84-16.13,20.84-16.13s-6.885-21.566,21.929-30.447c0,0,11.235,4.349,5.618-16.673    C282.498,668.024,287.936,656.606,312.221,657.695z" fill="#F1C40F"/><path d="M292.646,787.82l43.858-3.671c0,0,32.259-3.41,21.024,25.684c-11.237,29.093-19.212,60.791-19.212,60.791    l-12.041,1.286c0,0,2.014-47.966,3.945-54.249c1.933-6.282-11.116-6.282-20.659-5.075c-9.546,1.209-42.288,9.063-42.288,9.063    V799.66L292.646,787.82z" fill="#8E44AD"/><path d="M253.502,789.632c0,0-54.008,18.122,10.51,61.618c0,0,39.146,22.757-2.176,11.197    c-41.32-11.56-48.206-5.76-48.206-5.76v7.496c0,0,60.002,18.963,67.154,21.862c7.15,2.9,39.408,10.723,22.012-32.154    C285.399,811.017,273.073,790.718,253.502,789.632z" fill="#8E44AD"/><path d="M352.175,733.517c0,0-27.844,35.942-43.091,26.828c-15.244-9.113-18.724-25.568-29.548-18.148    c-10.829,7.422,16.757,78.242,76.636-1.888l7.574-8.692l10.509-3.105c0,0,7.719-10.704-1.371-9.001    C363.792,721.214,352.175,733.517,352.175,733.517z" fill="#FD9C9D"/><path d="M261.959,808.841c1.475,0.422,13.206,3.558,23.99-4.095c10.683-7.585,11.67-19.537,11.772-21.094    c4.746-2.734,12.218-8.123,16.291-17.4c7.093-16.152,0.995-37.476-15.745-52.738c0,0-22.292-11.234-25.918,29.36    c-3.624,40.596-30.81,46.396-30.81,46.396S241.963,803.948,261.959,808.841z" fill="#2980B9"/><path d="M379.378,750.348c-6.297-4.107-10.279-10.142-10.279-16.874c0-12.378,13.44-22.41,30.021-22.41    c16.58,0,30.021,10.032,30.021,22.41c0,12.377-13.441,22.41-30.021,22.41c-4.015,0-7.843-0.595-11.343-1.66l-13.933,8.75    L379.378,750.348z" fill="#2ECC71"/><path d="M467.075,753.094c7.593-4.955,12.396-12.231,12.396-20.351c0-14.923-16.208-27.025-36.203-27.025    c-19.994,0-36.2,12.103-36.2,27.025c0,14.926,16.206,27.023,36.2,27.023c4.842,0,9.458-0.714,13.68-2.001l16.8,10.551    L467.075,753.094z" fill="#E74C3C"/><g><path d="M425.574,740.966c0-1.908,1.309-3.286,3.18-3.286s3.145,1.342,3.145,3.286     c0,1.872-1.273,3.249-3.18,3.249C426.883,744.215,425.574,742.838,425.574,740.966z" fill="#FFFFFF"/><path d="M434.758,740.966c0-1.908,1.307-3.286,3.178-3.286c1.874,0,3.143,1.342,3.143,3.286     c0,1.872-1.269,3.249-3.176,3.249C436.065,744.215,434.758,742.838,434.758,740.966z" fill="#FFFFFF"/><path d="M443.942,740.966c0-1.908,1.306-3.286,3.18-3.286c1.871,0,3.142,1.342,3.142,3.286     c0,1.872-1.271,3.249-3.178,3.249C445.248,744.215,443.942,742.838,443.942,740.966z" fill="#FFFFFF"/><path d="M452.914,741c0-1.871,1.307-3.214,3.178-3.214c1.871,0,3.108,1.343,3.144,3.214     c0,1.838-1.236,3.215-3.144,3.215C454.184,744.215,452.914,742.838,452.914,741z M454.078,736.021l-0.813-16.001h5.616     l-0.776,16.001H454.078z" fill="#FFFFFF"/></g><g><path d="M397.495,736.126l-0.036-0.918c-0.106-1.801,0.494-3.639,2.085-5.545     c1.129-1.343,2.048-2.473,2.048-3.672c0-1.239-0.813-2.05-2.579-2.121c-1.166,0-2.578,0.425-3.498,1.06l-1.201-3.85     c1.272-0.741,3.393-1.446,5.901-1.446c4.66,0,6.781,2.577,6.781,5.509c0,2.685-1.662,4.449-3.004,5.934     c-1.305,1.447-1.836,2.823-1.8,4.414v0.636H397.495z M396.576,741c0-1.871,1.307-3.214,3.142-3.214     c1.907,0,3.145,1.343,3.179,3.214c0,1.838-1.272,3.215-3.179,3.215C397.847,744.215,396.576,742.838,396.576,741z" fill="#FFFFFF"/></g><path d="M357.197,753.964c0,0-42.229,16.856-50.745,1.271c-8.518-15.587-3.17-31.534-16.265-30.628    c-13.096,0.905-25.238,75.931,67.01,37.242l10.935-3.654l10.63,2.653c0,0,12.083-5.312,3.383-8.453    S357.197,753.964,357.197,753.964z" fill="#FD9C9D"/></g><g><path d="M115.031,791.976c3.793-4.789-5.389-7.184,16.566-26.743c21.954-19.559,26.543,2.993,20.357-46.899    c-6.188-49.896,25.147-35.128,21.355-51.693c-3.792-16.564-34.728,9.381-44.107,26.146c-9.379,16.765-21.755,12.174-16.865,29.937    c4.89,17.762,1.299,21.753,1.299,21.753s1.198-29.736-17.167-35.724c-18.358-5.988-30.534-15.367-21.753,3.792    c8.784,19.159,13.772,32.931,11.777,39.518c-1.996,6.585,3.991,7.184,8.182,11.176c4.19,3.992-2.793,20.357,5.789,25.347    C109.043,793.572,115.031,791.976,115.031,791.976z" fill="#2ECC71"/><path d="M113.436,793.671c0.2-39.614,33.129-89.909,33.129-89.909s-31.034,30.238-33.93,74.544L113.436,793.671z" fill="#DEEDF2"/><path d="M113.981,796.564c-0.137-30.26-22.653-68.675-22.653-68.675s21.218,23.095,23.199,56.938L113.981,796.564z    " fill="#DEEDF2"/><rect fill="#34495E" height="10.177" width="51.691" x="86.492" y="788.584"/><polygon fill="#2C3E50" points="128.402,827.101 96.869,827.101 91.881,798.761 133.392,798.761   "/></g></g></svg>