<?xml version="1.0" ?><!DOCTYPE svg  PUBLIC '-//W3C//DTD SVG 1.1//EN'  'http://www.w3.org/Graphics/SVG/1.1/DTD/svg11.dtd'><svg enable-background="new 0 0 66 66" id="Layer_1" version="1.1" viewBox="0 0 66 66" xml:space="preserve" xmlns="http://www.w3.org/2000/svg" xmlns:xlink="http://www.w3.org/1999/xlink"><g><g><g><path d="M50.9308,25.7988l-0.4736,1.1144l-0.3529,0.351c-0.5981,0.5943-1.5503,1.6964-1.6357,2.534     c-0.1653,1.588,0.0427,24.5124,0.5535,26.0317h-4.4093c0.6954-2.323,1.0078-25.9443,0.7609-28.557     c-0.002-0.021-0.0176-0.0342-0.0385-0.0373c-0.6553-0.0997-2.9981-1.9212-2.9105-2.0056l0.6599-0.6363     c0.0154-0.0149,0.0393-0.0167,0.0575-0.0054c0.3845,0.2405,1.8647,1.5233,2.2155,1.5956     c-0.052-0.3882-1.3498-1.9609-1.5968-2.4549l-0.1857-0.4662l2.0374,0.2723l-0.1523,0.3677     c0.2205,0.0107,0.9204,5.8331,2.0073-0.0124c0.0015-0.0079,0.0039-0.0098,0.0089-0.0159l0.6033-0.7354l0.091,0.6371     c-0.0249,0.1029-0.6922,1.8277-0.5355,2.9575c0.0345,0.2488,0.0998,0.4699,0.2224,0.5311     c0.3409,0.1678,1.8957-0.9924,1.9526-1.0405c0.0041-0.0034,0.0051-0.0031,0.0101-0.005L50.9308,25.7988z" fill="#9B673D"/><path d="M57.3255,23.9936c-0.4985,3.22-2.9265,3.7423-2.9265,3.7423c-5.4451,0.7489-5.6717-3.9927-5.6717-3.9927     c-1.1568,0.9539-4.1502,0.0907-4.1502,0.0907c-0.7198,1.866-2.5525,2.8081-4.3984,2.6697     c-4.0121-0.3022-4.0639-4.3941-4.0639-4.3941c-0.9539-0.8849-1.2021-1.7913-1.2021-1.7913     c-0.9086-4.107,1.7697-5.1279,1.7697-5.1279c-0.0237-4.4243,4.5819-4.5149,4.5819-4.5149s0.2029-2.9265,3.3344-3.4704     c3.1315-0.5439,4.6962,2.2014,4.6962,2.2014c4.1286-2.1776,6.2393,2.087,6.2393,2.087c5.0804,1.4525,3.561,5.8293,3.561,5.8293     C61.7713,22.1095,57.3255,23.9936,57.3255,23.9936z" fill="#52BD96"/><g><path d="M59.103,21.352c-0.0165,0-0.0336-0.0027-0.0501-0.0082c-0.0818-0.0278-0.1258-0.1163-0.098-0.1981      c0.3278-0.9694,0.127-2.1171-0.5964-3.4112l-0.1508-0.2692c-0.0217-0.0391-0.0259-0.0855-0.0113-0.1276l0.1013-0.2918      c0.0046-0.0131,0.4752-1.474-0.1999-2.7739c-0.4731-0.9102-1.4135-1.5719-2.7956-1.9672l-0.2915-0.0849      c-0.0418-0.0122-0.0766-0.0412-0.0958-0.08l-0.1355-0.2695c-0.0116-0.0223-1.1593-2.2395-3.2168-2.2395      c-1.1629,0-2.1036,0.6729-2.4629,0.8324c-0.2203,0.1161-0.2759-0.2559-0.5381-0.6395      c-1.7444-2.9757-6.2072-2.1123-6.4559,0.9117c-0.0595,0.3983,0.0449,0.7668-0.196,0.7713      c-3.1837,0.0956-4.3947,1.5875-4.3834,3.6789l0.0024,0.4765c0.0016,0.3421-2.6912,0.4097-1.8018,4.4353      c0.0448,0.2027-0.2611,0.2676-0.3052,0.0672c-0.4369-1.9782-0.0933-3.8405,1.7938-4.609l-0.0018-0.3681      c-0.0123-2.2501,1.3364-3.8927,4.547-3.9906c0.3874-4.3411,5.3765-4.4737,7.0725-1.528l0.2546,0.4472      c0.2712-0.1178,1.2535-0.7979,2.4748-0.7979c2.2639,0,3.4839,2.3878,3.4961,2.4119l0.1047,0.2085l0.2256,0.0656      c1.4672,0.4197,2.4721,1.1342,2.9861,2.1235c0.7383,1.4215,0.2234,3.005,0.2182,3.0206l-0.0784,0.2256l0.1166,0.2079      c0.7686,1.3748,0.977,2.6076,0.6196,3.664C59.2291,21.3108,59.1684,21.352,59.103,21.352z" fill="#2CA47E"/></g></g><g><circle cx="13.2303" cy="16.5458" fill="#52BD96" r="4.9823"/><g><circle cx="21.8077" cy="28.1194" fill="#52BD96" r="4.0934"/><circle cx="20.6622" cy="28.1196" fill="#61C19E" r="2.9479"/><circle cx="14.8679" cy="27.7363" fill="#52BD96" r="4.277"/><circle cx="16.0648" cy="27.7366" fill="#61C19E" r="3.0801"/><circle cx="22.6723" cy="13.9635" fill="#52BD96" r="6.8308"/><circle cx="22.6723" cy="14.8387" fill="#61C19E" r="5.2647"/><circle cx="13.2303" cy="17.6875" fill="#61C19E" r="2.9591"/></g><path d="M20.1434,30.6493c0,0-0.1798,22.3056,0.4498,24.4699c0.1936,0.6657,1.3687,2.4117,1.3687,2.4117v0.7095     h-6.5564v-0.6068c0,0,1.1844-1.8265,1.3919-2.5144c0.6621-2.1948,0.6511-23.5465,0.3819-24.6269     c-0.2179-0.8747-2.7839-2.2914-2.7839-2.2914l0.5603-0.4265l1.4155,0.7078c0.1581,0.0791,0.3419,0.0892,0.5077,0.028v0     c0.2492-0.0919,0.4158-0.3274,0.4185-0.593c0.0086-0.8461,0.0156-2.6778-0.0736-3.3997     c-0.3261-2.6386-1.5512-3.7532-3.7493-4.8505c-0.7538-0.3763-1.865-2.8071-1.865-2.8071l0.5622-0.2908l1.6614,2.3806     c0,0,1.1474,0.3994,1.5276,0.5389c0.9649,0.3541,1.6855,0.8959,2.0879,1.6381c0.5214,0.9617,1.0051,2.1305,1.6168,1.7971     c1.45-0.7902,1.7573-2.492,1.6401-4.2223l-0.853-3.5923l0.5603-0.1803c0,0,0.4701,1.8403,0.9208,2.2469     c0.1174,0.1059,0.4639,0.2461,0.6068,0.1784c1.0182-0.4832,1.7506-4.1545,1.7506-4.1545l0.5855,0.5622     c0,0-2.3147,7.8592-2.3147,7.9271c0,0.0678-1.3277,2.6376-1.6381,3.569c-0.3362,1.0087-0.5737,2.8866,0.0446,3.0785     c0.4894,0.152,1.863-0.8549,1.863-0.8549l0.6301,0.506C21.6864,28.7305,20.6591,29.5527,20.1434,30.6493z" fill="#9B673D"/></g><g><g><path d="M12.4787,52.4565c-0.9042,0.5193-1.42,1.4403-1.846,2.339c-1.1531,2.5088-0.7112,3.4811-1.622,3.2676      c-0.2956-0.0692-0.479-0.365-0.4097-0.6605C8.8188,56.476,10.6691,53.0967,12.4787,52.4565z" fill="#52BD96"/><path d="M11.312,52.3165c-1.6877,1.949-2.1421,5.3717-2.1228,5.2714c-0.1374,0.7134-1.2172,0.5071-1.0795-0.2076      C8.2805,56.4809,9.7634,53.4765,11.312,52.3165z" fill="#52BD96"/><path d="M11.557,54.1134c-0.5071,0.4061-0.7192,1.0283-0.9329,1.6089c-0.5207,1.5655-0.3225,2.395-1.0806,2.2752      c-0.3016-0.0477-0.5073-0.3308-0.4597-0.6324C9.1363,57.0341,10.439,54.5731,11.557,54.1134z" fill="#52BD96"/><path d="M10.5068,51.8614c-0.7474,0.7323-1.1535,1.6936-1.4333,2.6611      c-0.7196,2.5415-0.1554,3.5544-1.0504,3.5113c-0.3033-0.0146-0.5374-0.2722-0.5227-0.5755      C7.5296,56.8274,8.5694,53.1775,10.5068,51.8614z" fill="#52BD96"/><path d="M9.2117,51.8614c-1.2276,2.5596-1.0846,5.8354-1.0829,5.6852      c-0.0083,0.7277-1.1091,0.7163-1.1008-0.0125C7.0345,56.7324,7.9075,53.6492,9.2117,51.8614z" fill="#52BD96"/><path d="M8.5699,51.3364c-1.6922,4.9853-0.4869,6.7675-1.6363,6.7481      c-0.3036-0.0051-0.5456-0.2555-0.5404-0.5591C6.4026,56.9862,7.11,54.0341,8.5699,51.3364z" fill="#52BD96"/><path d="M2.9294,52.4565c1.7089,0.6045,3.1266,3.1853,3.8473,4.8536c0.3098,0.7178-0.85,1.1239-1.0392,0.3463      C5.3166,55.927,4.4664,53.3393,2.9294,52.4565z" fill="#52BD96"/><path d="M4.0963,52.3165c1.4405,1.0791,2.5599,3.3,3.1783,4.9775c0.1049,0.2848-0.0409,0.6008-0.3256,0.7058      c-0.3144,0.1159-0.6621-0.074-0.7293-0.4089C6.2195,57.591,5.3942,53.8154,4.0963,52.3165z" fill="#52BD96"/><path d="M3.8513,54.1134c0.9818,0.4037,1.9671,2.1498,2.4249,3.0976c0.318,0.6581-0.677,1.1398-0.9954,0.4808      C5.1852,57.4939,4.8758,54.934,3.8513,54.1134z" fill="#52BD96"/><path d="M4.9014,51.8614c1.6099,1.0936,2.562,3.6112,2.9934,5.501c0.0676,0.296-0.1178,0.5907-0.4137,0.6583      c-0.3302,0.0754-0.652-0.1632-0.6714-0.5065C6.6818,56.9721,6.699,53.6227,4.9014,51.8614z" fill="#52BD96"/><path d="M6.1966,51.8614c1.1761,1.6121,1.7786,3.5729,2.1732,5.5724c0.1518,0.7687-1.0769,0.9217-1.0903,0.1159      C7.2466,55.5722,7.0524,53.6462,6.1966,51.8614z" fill="#52BD96"/><path d="M6.8383,51.3364c1.0187,1.8824,1.7516,3.9139,2.1671,6.0954c0.1461,0.7663-1.0721,0.9141-1.0899,0.1153      C7.8671,55.3781,7.5172,53.3367,6.8383,51.3364z" fill="#52BD96"/></g><g><path d="M17.2534,52.4565c-2.1316,1.2242-2.975,5.9121-2.8074,5.1969      c-0.1658,0.7073-1.2365,0.4578-1.0703-0.2508C13.5935,56.476,15.4438,53.0967,17.2534,52.4565z" fill="#52BD96"/><path d="M16.0867,52.3165c-1.6877,1.949-2.1421,5.3717-2.1228,5.2714      c-0.1374,0.7134-1.2172,0.5071-1.0795-0.2076C13.0551,56.4809,14.5381,53.4765,16.0867,52.3165z" fill="#52BD96"/><path d="M14.9113,55.4745c0.3857-0.5267,0.804-1.1076,1.4204-1.361c-0.5071,0.4061-0.7192,1.0283-0.9329,1.6089      c-0.5207,1.5655-0.3225,2.395-1.0806,2.2752c-0.3016-0.0477-0.5073-0.3308-0.4597-0.6324      C13.9089,57.0466,14.6722,55.8221,14.9113,55.4745z" fill="#52BD96"/><path d="M13.3379,54.3258c0.4641-0.9492,1.0761-1.875,1.9436-2.4643c-1.9147,1.8761-1.9279,6.0599-1.9082,5.6497      c-0.0348,0.7258-1.1334,0.6743-1.0982-0.0529C12.2765,57.4265,12.6651,55.7228,13.3379,54.3258z" fill="#52BD96"/><path d="M13.9864,51.8614c-1.7821,3.716-0.4273,6.2432-1.6396,6.2294c-0.3039-0.0035-0.5475-0.2527-0.544-0.5567      C11.8092,56.7324,12.6821,53.6492,13.9864,51.8614z" fill="#52BD96"/><path d="M13.3446,51.3364c-1.1612,3.4208-1.0801,6.3855-1.0771,6.2076      c-0.0121,0.7269-1.112,0.7093-1.0996-0.0186C11.1772,56.9862,11.8847,54.0341,13.3446,51.3364z" fill="#52BD96"/><path d="M7.7041,52.4565c1.7089,0.6045,3.1266,3.1853,3.8473,4.8536c0.1203,0.2787-0.008,0.6022-0.2868,0.7225      C10.0838,58.5427,10.2118,53.8969,7.7041,52.4565z" fill="#52BD96"/><path d="M8.8709,52.3165c1.4405,1.0791,2.5599,3.3,3.1783,4.9775c0.1049,0.2848-0.0409,0.6008-0.3256,0.7058      C10.3475,58.507,11.4093,55.2479,8.8709,52.3165z" fill="#52BD96"/><path d="M8.6259,54.1134c0.9818,0.4037,1.9671,2.1498,2.4249,3.0976c0.318,0.6581-0.677,1.1398-0.9954,0.4808      C10.0068,57.5913,9.6312,54.9186,8.6259,54.1134z" fill="#52BD96"/><path d="M11.1094,54.5226c-0.28-0.9675-0.686-1.9288-1.4333-2.6611c1.6099,1.0936,2.562,3.6112,2.9933,5.501      c0.0676,0.296-0.1178,0.5907-0.4137,0.6583C11.2175,58.2577,11.8061,56.9829,11.1094,54.5226z" fill="#52BD96"/><path d="M10.9712,51.8614c1.1761,1.6121,1.7786,3.5729,2.1732,5.5724c0.0589,0.2983-0.1351,0.5877-0.4334,0.6466      C11.3232,58.3544,12.7509,55.5729,10.9712,51.8614z" fill="#52BD96"/><path d="M11.613,51.3364c1.0187,1.8824,1.7516,3.9139,2.1671,6.0954c0.1362,0.7143-0.944,0.921-1.0803,0.2058      c-0.0057-0.0304-0.0089-0.0606-0.0096-0.0905C12.6417,55.3781,12.2919,53.3367,11.613,51.3364z" fill="#52BD96"/></g><g><path d="M22.0281,52.4565c-2.1316,1.2242-2.975,5.9121-2.8074,5.1969      c-0.1658,0.7073-1.2365,0.4578-1.0703-0.2508C18.3681,56.476,20.2185,53.0967,22.0281,52.4565z" fill="#52BD96"/><path d="M20.8613,52.3165c-1.6877,1.949-2.1421,5.3717-2.1228,5.2714      c-0.1374,0.7134-1.2172,0.5071-1.0795-0.2076C17.8298,56.4809,19.3128,53.4765,20.8613,52.3165z" fill="#52BD96"/><path d="M19.6859,55.4745c0.3857-0.5267,0.804-1.1076,1.4204-1.361c-1.3373,1.0711-1.0162,4.0417-2.0135,3.884      c-0.3016-0.0477-0.5073-0.3308-0.4597-0.6324C18.6836,57.0466,19.4469,55.8221,19.6859,55.4745z" fill="#52BD96"/><path d="M20.0562,51.8614c-1.9147,1.8761-1.9279,6.0599-1.9082,5.6497      c-0.0348,0.7258-1.1334,0.6743-1.0982-0.0529C17.0789,56.8274,18.1187,53.1775,20.0562,51.8614z" fill="#52BD96"/><path d="M18.761,51.8614c-1.7601,3.6701-0.3971,6.2435-1.6396,6.2294      C15.5862,58.0732,17.8642,53.0908,18.761,51.8614z" fill="#52BD96"/><path d="M18.1192,51.3364c-1.6922,4.9853-0.4869,6.7675-1.6363,6.7481      c-0.3036-0.0051-0.5456-0.2555-0.5404-0.5591C15.9519,56.9862,16.6593,54.0341,18.1192,51.3364z" fill="#52BD96"/><path d="M12.4787,52.4565c1.7089,0.6045,3.1266,3.1853,3.8473,4.8536c0.3098,0.7178-0.85,1.1239-1.0392,0.3463      C14.8659,55.927,14.0157,53.3393,12.4787,52.4565z" fill="#52BD96"/><path d="M13.6456,52.3165c1.4405,1.0791,2.5599,3.3,3.1783,4.9775c0.1049,0.2848-0.0409,0.6008-0.3256,0.7058      c-0.3144,0.1159-0.6621-0.074-0.7293-0.4089C15.7689,57.591,14.9435,53.8154,13.6456,52.3165z" fill="#52BD96"/><path d="M14.3335,55.7223c-0.2137-0.5806-0.4259-1.2028-0.9329-1.6089c0.6164,0.2535,1.0347,0.8343,1.4204,1.361      c0.3794,0.5518,0.7058,1.1183,1.0045,1.7366c0.318,0.6581-0.677,1.1398-0.9954,0.4808      C14.8071,57.6443,14.7388,56.941,14.3335,55.7223z" fill="#52BD96"/><path d="M14.4508,51.8614c1.6099,1.0936,2.562,3.6112,2.9934,5.501c0.1736,0.7608-1.04,0.9524-1.0851,0.1518      C16.2521,55.6192,15.8026,53.186,14.4508,51.8614z" fill="#52BD96"/><path d="M15.7459,51.8614c1.1761,1.6121,1.7786,3.5729,2.1732,5.5724c0.1518,0.7687-1.0769,0.9217-1.0903,0.1159      C16.7959,55.5722,16.6017,53.6462,15.7459,51.8614z" fill="#52BD96"/><path d="M16.3877,51.3364c1.0187,1.8824,1.7516,3.9139,2.1671,6.0954c0.1461,0.7663-1.0721,0.9141-1.0899,0.1153      C17.4164,55.3781,17.0665,53.3367,16.3877,51.3364z" fill="#52BD96"/></g><g><path d="M26.8027,52.4565c-2.1316,1.2242-2.975,5.9121-2.8074,5.1969      c-0.1658,0.7073-1.2365,0.4578-1.0703-0.2508C23.1428,56.476,24.9931,53.0967,26.8027,52.4565z" fill="#52BD96"/><path d="M25.636,52.3165c-2.451,2.8305-1.5258,5.946-2.7664,5.7074c-0.2981-0.0573-0.4933-0.3455-0.4359-0.6436      C22.6044,56.4809,24.0874,53.4765,25.636,52.3165z" fill="#52BD96"/><path d="M24.4606,55.4745c0.3857-0.5267,0.804-1.1076,1.4204-1.361c-0.7845,0.6284-1.2191,2.4559-1.3813,3.4244      c-0.1141,0.7219-1.2062,0.5502-1.0919-0.1728C23.4583,57.0466,24.2215,55.8221,24.4606,55.4745z" fill="#52BD96"/><path d="M24.8308,51.8614c-0.7474,0.7323-1.1535,1.6936-1.4333,2.6611      c-0.7246,2.5591-0.1222,3.556-1.0504,3.5113c-0.3033-0.0146-0.5374-0.2722-0.5227-0.5755      C21.8535,56.8274,22.8934,53.1775,24.8308,51.8614z" fill="#52BD96"/><path d="M23.5357,51.8614c-1.2276,2.5596-1.0846,5.8354-1.0829,5.6852      c-0.0083,0.7277-1.1091,0.7163-1.1008-0.0125C21.3585,56.7324,22.2315,53.6492,23.5357,51.8614z" fill="#52BD96"/><path d="M22.8939,51.3364c-1.1612,3.4208-1.0801,6.3855-1.0771,6.2076      c-0.0121,0.7269-1.112,0.7093-1.0996-0.0186C20.7178,57.4944,21.434,54.0341,22.8939,51.3364z" fill="#52BD96"/><path d="M17.2534,52.4565c1.7089,0.6045,3.1266,3.1853,3.8473,4.8536c0.1203,0.2787-0.008,0.6022-0.2868,0.7225      c-0.3118,0.1347-0.6713-0.0426-0.7524-0.3762C19.8153,57.0512,19.1799,53.563,17.2534,52.4565z" fill="#52BD96"/><path d="M18.4202,52.3165c1.4405,1.0791,2.5599,3.3,3.1783,4.9775c0.2679,0.7272-0.898,1.0781-1.055,0.297      C20.1647,55.7059,19.7182,53.8154,18.4202,52.3165z" fill="#52BD96"/><path d="M19.1082,55.7223c-0.2137-0.5806-0.4259-1.2028-0.9329-1.6089c0.6164,0.2535,1.0347,0.8343,1.4204,1.361      c0.3794,0.5518,0.7059,1.1183,1.0045,1.7366c0.318,0.6581-0.677,1.1398-0.9954,0.4808      C19.5043,57.4837,19.5135,56.941,19.1082,55.7223z" fill="#52BD96"/><path d="M19.2254,51.8614c1.6099,1.0936,2.562,3.6112,2.9933,5.501c0.1617,0.7086-0.9101,0.9542-1.0721,0.2447      C21.0841,57.3317,21.0533,53.6524,19.2254,51.8614z" fill="#52BD96"/><path d="M20.5206,51.8614c1.1761,1.6121,1.7786,3.5729,2.1732,5.5724c0.1518,0.7687-1.0769,0.9217-1.0903,0.1159      C21.5705,55.5722,21.3764,53.6462,20.5206,51.8614z" fill="#52BD96"/><path d="M21.1623,51.3364c1.0187,1.8824,1.7516,3.9139,2.1671,6.0954c0.0569,0.2983-0.139,0.5862-0.4372,0.6431      C21.6382,58.3136,22.5263,55.3555,21.1623,51.3364z" fill="#52BD96"/></g><g><path d="M31.5774,52.4565c-2.1316,1.2242-2.975,5.9121-2.8074,5.1969      c-0.1658,0.7073-1.2365,0.4578-1.0703-0.2508C27.9175,56.476,29.7678,53.0967,31.5774,52.4565z" fill="#52BD96"/><path d="M30.4107,52.3165c-1.2778,1.4756-1.7679,3.426-2.1174,5.2434l-0.0053,0.028      c-0.1374,0.7134-1.2172,0.5071-1.0795-0.2076C27.3791,56.4809,28.8621,53.4765,30.4107,52.3165z" fill="#52BD96"/><path d="M30.6556,54.1134c-0.5071,0.4061-0.7192,1.0283-0.9329,1.6089      c-0.1968,0.5917-0.3482,1.2174-0.4483,1.8155c-0.1141,0.7219-1.2062,0.5502-1.0919-0.1728      C28.2349,57.0341,29.5377,54.5731,30.6556,54.1134z" fill="#52BD96"/><path d="M29.6055,51.8614c-0.7474,0.7323-1.1535,1.6936-1.4333,2.6611      c-0.7246,2.5591-0.1222,3.556-1.0504,3.5113c-0.3033-0.0146-0.5374-0.2722-0.5227-0.5755      C26.6282,56.8274,27.668,53.1775,29.6055,51.8614z" fill="#52BD96"/><path d="M28.3103,51.8614c-1.7821,3.716-0.4273,6.2432-1.6396,6.2294      C25.1355,58.0732,27.4135,53.0908,28.3103,51.8614z" fill="#52BD96"/><path d="M27.6686,51.3364c-1.1612,3.4208-1.0801,6.3855-1.0771,6.2076      c-0.0121,0.7269-1.112,0.7093-1.0996-0.0186C25.4924,57.4944,26.2087,54.0341,27.6686,51.3364z" fill="#52BD96"/><path d="M22.0281,52.4565c1.7089,0.6045,3.1266,3.1853,3.8473,4.8536c0.288,0.6672-0.7206,1.1039-1.0093,0.4358      c-0.0127-0.0294-0.0226-0.0593-0.0299-0.0895C24.4152,55.927,23.565,53.3393,22.0281,52.4565z" fill="#52BD96"/><path d="M23.1949,52.3165c1.4405,1.0791,2.5599,3.3,3.1783,4.9775c0.2679,0.7272-0.898,1.0781-1.055,0.297      C24.9394,55.7059,24.4928,53.8154,23.1949,52.3165z" fill="#52BD96"/><path d="M22.9499,54.1134c0.9818,0.4037,1.9671,2.1498,2.4249,3.0976c0.1328,0.2749,0.0176,0.6054-0.2573,0.7382      c-0.2749,0.1328-0.6053,0.0176-0.7382-0.2573C24.2839,57.4939,23.9744,54.934,22.9499,54.1134z" fill="#52BD96"/><path d="M24.0001,51.8614c1.6099,1.0936,2.562,3.6112,2.9934,5.501c0.0676,0.296-0.1178,0.5907-0.4137,0.6583      c-0.3302,0.0754-0.652-0.1632-0.6714-0.5065C25.7804,56.9721,25.7976,53.6227,24.0001,51.8614z" fill="#52BD96"/><path d="M25.2952,51.8614c1.1761,1.6121,1.7786,3.5729,2.1732,5.5724c0.1518,0.7687-1.0769,0.9217-1.0903,0.1159      C26.3452,55.5722,26.151,53.6462,25.2952,51.8614z" fill="#52BD96"/><path d="M25.937,51.3364c1.0187,1.8824,1.7516,3.9139,2.1671,6.0954c0.1461,0.7663-1.0721,0.9141-1.0899,0.1153      C27.0141,57.547,26.6159,53.3367,25.937,51.3364z" fill="#52BD96"/></g><g><path d="M32.5049,57.3101c0.722-1.672,2.1397-4.2495,3.8471-4.8536c-1.5111,0.8679-2.4095,3.4991-2.8036,5.1811      l-0.0037,0.0158c-0.0693,0.2956-0.365,0.479-0.6606,0.4097c-0.2956-0.0692-0.479-0.365-0.4097-0.6605      C32.4817,57.3714,32.4928,57.3386,32.5049,57.3101z" fill="#52BD96"/><path d="M32.0071,57.294c0.6189-1.6789,1.7355-3.8967,3.1783-4.9775c-1.2778,1.4756-1.7679,3.426-2.1174,5.2434      l-0.0053,0.028c-0.0574,0.2981-0.3455,0.4933-0.6436,0.436c-0.2981-0.0573-0.4933-0.3455-0.4359-0.6436      C31.9885,57.3515,31.9975,57.3208,32.0071,57.294z" fill="#52BD96"/><path d="M35.4303,54.1134c-0.7845,0.6284-1.2191,2.4559-1.3813,3.4244      c-0.1141,0.7219-1.2062,0.5502-1.0919-0.1728C33.0096,57.0341,34.3123,54.5731,35.4303,54.1134z" fill="#52BD96"/><path d="M34.3801,51.8614c-1.3278,1.301-1.8182,3.7799-1.9073,5.63l-0.0009,0.0197      c-0.0146,0.3033-0.2724,0.5373-0.5755,0.5227c-0.3033-0.0146-0.5374-0.2722-0.5227-0.5755      C31.4029,56.8274,32.4427,53.1775,34.3801,51.8614z" fill="#52BD96"/><path d="M33.085,51.8614c-0.8515,1.7755-1.0612,3.7712-1.0826,5.6525l-0.0003,0.0327      c-0.0083,0.7277-1.1091,0.7163-1.1008-0.0125C30.9078,56.7324,31.7808,53.6492,33.085,51.8614z" fill="#52BD96"/><path d="M30.2762,57.4317c0.4155-2.1815,1.1484-4.213,2.1671-6.0954c-0.6824,2.0102-1.0422,4.1378-1.0766,6.1796      l-0.0005,0.028c-0.0121,0.7269-1.112,0.7093-1.0996-0.0186C30.2671,57.4944,30.2707,57.4612,30.2762,57.4317z" fill="#52BD96"/><path d="M26.8027,52.4565c1.7089,0.6045,3.1266,3.1853,3.8473,4.8536c0.1203,0.2787-0.008,0.6022-0.2868,0.7225      c-0.2786,0.1204-0.6021-0.008-0.7225-0.2867C29.56,57.5588,28.7827,53.5937,26.8027,52.4565z" fill="#52BD96"/><path d="M30.087,57.5599c-0.3495-1.8174-0.8396-3.7678-2.1174-5.2434c1.4405,1.0791,2.5599,3.3,3.1783,4.9775      c0.2512,0.6819-0.7799,1.0631-1.0315,0.3802c-0.0101-0.0276-0.0179-0.0553-0.0235-0.0832L30.087,57.5599z" fill="#52BD96"/><path d="M28.6575,55.7223c-0.2137-0.5806-0.4259-1.2028-0.9329-1.6089      c0.9818,0.4037,1.9671,2.1498,2.4249,3.0976c0.1328,0.2749,0.0176,0.6054-0.2573,0.7382      c-0.2749,0.1328-0.6053,0.0176-0.7382-0.2573C29.0536,57.4837,29.0628,56.941,28.6575,55.7223z" fill="#52BD96"/><path d="M30.682,57.4915c-0.089-1.8478-0.5787-4.3283-1.9073-5.63c1.6099,1.0936,2.562,3.6112,2.9933,5.501      c0.1617,0.7086-0.9101,0.9542-1.0721,0.2447c-0.0071-0.0311-0.0113-0.0621-0.0131-0.0929L30.682,57.4915z" fill="#52BD96"/><path d="M30.0699,51.8614c1.1761,1.6121,1.7786,3.5729,2.1732,5.5724c0.0589,0.2983-0.1351,0.5877-0.4334,0.6466      s-0.5877-0.1351-0.6466-0.4334c-0.0064-0.0326-0.0099-0.0652-0.0104-0.0973C31.1199,55.5722,30.9257,53.6462,30.0699,51.8614z" fill="#52BD96"/><path d="M31.7882,57.516c-0.0344-2.0418-0.3944-4.1694-1.0766-6.1796c1.0187,1.8824,1.7516,3.9139,2.1671,6.0954      c0.0569,0.2983-0.139,0.5862-0.4372,0.6431c-0.2984,0.0568-0.5862-0.139-0.6431-0.4373      c-0.0057-0.0304-0.0089-0.0606-0.0096-0.0905L31.7882,57.516z" fill="#52BD96"/></g><g><path d="M37.2796,57.3101c0.722-1.672,2.1397-4.2495,3.8471-4.8536c-1.5111,0.8679-2.4095,3.4991-2.8036,5.1811      l-0.0037,0.0158c-0.1658,0.7073-1.2365,0.4578-1.0703-0.2508C37.2563,57.3714,37.2674,57.3386,37.2796,57.3101z" fill="#52BD96"/><path d="M36.7817,57.294c0.6189-1.6789,1.7355-3.8967,3.1783-4.9775c-1.2778,1.4756-1.7679,3.426-2.1174,5.2434      l-0.0053,0.028c-0.1374,0.7134-1.2172,0.5071-1.0795-0.2076C36.7632,57.3515,36.7721,57.3208,36.7817,57.294z" fill="#52BD96"/><path d="M37.78,57.211c0.4627-0.958,1.4466-2.6953,2.425-3.0976c-0.7845,0.6284-1.2191,2.4559-1.3813,3.4244      c-0.0477,0.3016-0.3308,0.5073-0.6323,0.4597c-0.3016-0.0477-0.5073-0.3308-0.4597-0.6324      C37.74,57.3128,37.7587,57.2567,37.78,57.211z" fill="#52BD96"/><path d="M36.1615,57.3624c0.4312-1.8892,1.3832-4.4073,2.9933-5.501c-1.3278,1.301-1.8182,3.7799-1.9073,5.63      l-0.0009,0.0197c-0.0348,0.7258-1.1334,0.6743-1.0982-0.0529C36.1498,57.4265,36.1548,57.3925,36.1615,57.3624z" fill="#52BD96"/><path d="M35.6863,57.4338c0.3948-1.9995,0.9973-3.9603,2.1734-5.5724      c-0.8515,1.7755-1.0612,3.7712-1.0826,5.6525l-0.0003,0.0327c-0.0035,0.304-0.2527,0.5476-0.5567,0.5442      c-0.3039-0.0035-0.5475-0.2527-0.544-0.5567C35.6763,57.5009,35.6803,57.4654,35.6863,57.4338z" fill="#52BD96"/><path d="M35.0508,57.4317c0.4155-2.1815,1.1484-4.213,2.1671-6.0954c-0.6824,2.0102-1.0422,4.1378-1.0766,6.1796      l-0.0005,0.028c-0.0051,0.3037-0.2554,0.5456-0.5591,0.5405c-0.3036-0.0051-0.5456-0.2555-0.5404-0.5591      C35.0417,57.4944,35.0453,57.4612,35.0508,57.4317z" fill="#52BD96"/><path d="M34.3811,57.6376c-0.3945-1.6826-1.2903-4.3118-2.8038-5.1811      c1.7089,0.6045,3.1266,3.1853,3.8473,4.8536c0.1203,0.2787-0.008,0.6022-0.2868,0.7225      c-0.2786,0.1204-0.6021-0.008-0.7225-0.2867c-0.0127-0.0294-0.0226-0.0593-0.0299-0.0895L34.3811,57.6376z" fill="#52BD96"/><path d="M34.8616,57.5599c-0.3495-1.8174-0.8396-3.7678-2.1174-5.2434c1.4405,1.0791,2.5599,3.3,3.1783,4.9775      c0.1049,0.2848-0.0409,0.6008-0.3256,0.7058c-0.2849,0.105-0.6009-0.0408-0.7058-0.3256      c-0.0101-0.0276-0.0179-0.0553-0.0235-0.0832L34.8616,57.5599z" fill="#52BD96"/><path d="M33.8805,57.5378c-0.1632-0.975-0.5961-2.7955-1.3813-3.4244c0.9818,0.4037,1.9671,2.1498,2.4249,3.0976      c0.1328,0.2749,0.0176,0.6054-0.2573,0.7382c-0.2749,0.1328-0.6053,0.0176-0.7382-0.2573      C33.9057,57.6443,33.889,57.5875,33.8805,57.5378z" fill="#52BD96"/><path d="M35.4567,57.4915c-0.089-1.8478-0.5787-4.3283-1.9073-5.63c1.6099,1.0936,2.562,3.6112,2.9934,5.501      c0.0676,0.296-0.1178,0.5907-0.4137,0.6583s-0.5908-0.1176-0.6583-0.4136c-0.0071-0.0311-0.0113-0.0621-0.0131-0.0929      L35.4567,57.4915z" fill="#52BD96"/><path d="M35.927,57.5139c-0.0212-1.8812-0.2311-3.877-1.0825-5.6525c1.1761,1.6121,1.7786,3.5729,2.1732,5.5724      c0.1409,0.7138-0.9388,0.9282-1.0799,0.2132c-0.0064-0.0326-0.0099-0.0652-0.0104-0.0973L35.927,57.5139z" fill="#52BD96"/><path d="M36.5629,57.516c-0.0344-2.0418-0.3944-4.1694-1.0766-6.1796c1.0187,1.8824,1.7516,3.9139,2.1671,6.0954      c0.1362,0.7143-0.944,0.921-1.0803,0.2058c-0.0057-0.0304-0.0089-0.0606-0.0096-0.0905L36.5629,57.516z" fill="#52BD96"/></g><g><path d="M42.0542,57.3101c0.722-1.672,2.1397-4.2495,3.8471-4.8536c-2.1316,1.2242-2.975,5.9121-2.8074,5.1969      c-0.0693,0.2956-0.365,0.479-0.6606,0.4097c-0.2956-0.0692-0.479-0.365-0.4097-0.6605      C42.031,57.3714,42.0421,57.3386,42.0542,57.3101z" fill="#52BD96"/><path d="M41.5564,57.294c0.6189-1.6789,1.7355-3.8967,3.1783-4.9775c-2.4218,2.7968-1.5078,5.9495-2.7664,5.7074      c-0.2981-0.0573-0.4933-0.3455-0.4359-0.6436C41.5378,57.3515,41.5468,57.3208,41.5564,57.294z" fill="#52BD96"/><path d="M42.5546,57.211c0.4627-0.958,1.4466-2.6953,2.425-3.0976c-1.3373,1.0711-1.0162,4.0417-2.0135,3.884      c-0.3016-0.0477-0.5073-0.3308-0.4597-0.6324C42.5147,57.3128,42.5334,57.2567,42.5546,57.211z" fill="#52BD96"/><path d="M40.9361,57.3624c0.4312-1.8892,1.3832-4.4073,2.9934-5.501c-1.3278,1.301-1.8182,3.7799-1.9073,5.63      l-0.0009,0.0197c-0.0145,0.3033-0.2724,0.5373-0.5755,0.5227c-0.3033-0.0146-0.5374-0.2722-0.5227-0.5755      C40.9245,57.4265,40.9294,57.3925,40.9361,57.3624z" fill="#52BD96"/><path d="M40.461,57.4338c0.3948-1.9995,0.9973-3.9603,2.1734-5.5724c-0.8515,1.7755-1.0612,3.7712-1.0826,5.6525      l-0.0003,0.0327c-0.0035,0.304-0.2527,0.5476-0.5567,0.5442c-0.3039-0.0035-0.5475-0.2527-0.544-0.5567      C40.451,57.5009,40.455,57.4654,40.461,57.4338z" fill="#52BD96"/><path d="M39.8255,57.4317c0.4155-2.1815,1.1484-4.213,2.1671-6.0954c-0.6824,2.0102-1.0422,4.1378-1.0766,6.1796      l-0.0005,0.028c-0.0121,0.7269-1.112,0.7093-1.0996-0.0186C39.8164,57.4944,39.82,57.4612,39.8255,57.4317z" fill="#52BD96"/><path d="M39.1558,57.6376c-0.3945-1.6826-1.2903-4.3118-2.8038-5.1811      c1.7089,0.6045,3.1266,3.1853,3.8473,4.8536c0.288,0.6672-0.7206,1.1039-1.0093,0.4358      c-0.0127-0.0294-0.0226-0.0593-0.0299-0.0895L39.1558,57.6376z" fill="#52BD96"/><path d="M39.6363,57.5599c-0.3495-1.8174-0.8396-3.7678-2.1174-5.2434c1.4405,1.0791,2.5599,3.3,3.1783,4.9775      c0.2707,0.7349-0.8998,1.0693-1.055,0.297L39.6363,57.5599z" fill="#52BD96"/><path d="M38.6552,57.5378c-0.1632-0.975-0.5961-2.7955-1.3813-3.4244c0.9818,0.4037,1.9671,2.1498,2.4249,3.0976      c0.318,0.6581-0.677,1.1398-0.9954,0.4808C38.6804,57.6443,38.6637,57.5875,38.6552,57.5378z" fill="#52BD96"/><path d="M40.2313,57.4915c-0.089-1.8478-0.5787-4.3283-1.9073-5.63c1.6099,1.0936,2.562,3.6112,2.9933,5.501      c0.0676,0.296-0.1178,0.5907-0.4137,0.6583c-0.296,0.0676-0.5908-0.1176-0.6583-0.4136      c-0.0071-0.0311-0.0113-0.0621-0.0131-0.0929L40.2313,57.4915z" fill="#52BD96"/><path d="M40.7017,57.5139c-0.0212-1.8812-0.2311-3.877-1.0825-5.6525c1.1761,1.6121,1.7786,3.5729,2.1732,5.5724      c0.0589,0.2983-0.1351,0.5877-0.4334,0.6466c-0.2983,0.0589-0.5877-0.1351-0.6466-0.4334      c-0.0064-0.0326-0.0099-0.0652-0.0104-0.0973L40.7017,57.5139z" fill="#52BD96"/><path d="M41.3376,57.516c-0.0344-2.0418-0.3944-4.1694-1.0766-6.1796c1.0187,1.8824,1.7516,3.9139,2.1671,6.0954      c0.0569,0.2983-0.139,0.5862-0.4372,0.6431c-0.2984,0.0568-0.5862-0.139-0.6431-0.4373      c-0.0057-0.0304-0.0089-0.0606-0.0096-0.0905L41.3376,57.516z" fill="#52BD96"/></g><g><path d="M50.676,52.4565c-1.5111,0.8679-2.4095,3.4991-2.8036,5.1811l-0.0037,0.0158      c-0.0693,0.2956-0.365,0.479-0.6606,0.4097c-0.2956-0.0692-0.479-0.365-0.4097-0.6605      C47.0161,56.476,48.8664,53.0967,50.676,52.4565z" fill="#52BD96"/><path d="M49.5093,52.3165c-1.2778,1.4756-1.7679,3.426-2.1174,5.2434l-0.0053,0.028      c-0.0574,0.2981-0.3455,0.4933-0.6436,0.436c-0.2981-0.0573-0.4933-0.3455-0.4359-0.6436      C46.4777,56.4809,47.9607,53.4765,49.5093,52.3165z" fill="#52BD96"/><path d="M48.3339,55.4745c0.3857-0.5267,0.804-1.1076,1.4204-1.361c-0.5071,0.4061-0.7192,1.0283-0.9329,1.6089      c-0.5207,1.5655-0.3225,2.395-1.0806,2.2752c-0.3016-0.0477-0.5073-0.3308-0.4597-0.6324      C47.3316,57.0466,48.0948,55.8221,48.3339,55.4745z" fill="#52BD96"/><path d="M45.7108,57.3624c0.4312-1.8892,1.3832-4.4073,2.9934-5.501c-1.9147,1.8761-1.9279,6.0599-1.9082,5.6497      c-0.0146,0.3033-0.2724,0.5373-0.5755,0.5227c-0.3033-0.0146-0.5374-0.2722-0.5227-0.5755      C45.6992,57.4265,45.7041,57.3925,45.7108,57.3624z" fill="#52BD96"/><path d="M45.2356,57.4338c0.3948-1.9995,0.9973-3.9603,2.1734-5.5724      c-1.7601,3.6701-0.3971,6.2435-1.6396,6.2294c-0.3039-0.0035-0.5475-0.2527-0.544-0.5567      C45.2256,57.5009,45.2296,57.4654,45.2356,57.4338z" fill="#52BD96"/><path d="M44.6001,57.4317c0.4155-2.1815,1.1484-4.213,2.1671-6.0954c-0.6824,2.0102-1.0421,4.1378-1.0766,6.1796      l-0.0005,0.028c-0.0051,0.3037-0.2554,0.5456-0.5591,0.5405c-0.3036-0.0051-0.5456-0.2555-0.5404-0.5591      C44.5911,57.4944,44.5947,57.4612,44.6001,57.4317z" fill="#52BD96"/><path d="M42.9728,54.7956c-0.426-0.8988-0.9419-1.8197-1.8461-2.339c1.7089,0.6045,3.1266,3.1853,3.8473,4.8536      c0.1203,0.2787-0.008,0.6022-0.2868,0.7225C43.7046,58.4571,44.0929,57.2324,42.9728,54.7956z" fill="#52BD96"/><path d="M44.411,57.5599c-0.3495-1.8174-0.8396-3.7678-2.1174-5.2434c1.4405,1.0791,2.5599,3.3,3.1783,4.9775      c0.1049,0.2848-0.0409,0.6008-0.3256,0.7058c-0.2849,0.105-0.6009-0.0408-0.7059-0.3256      c-0.0101-0.0276-0.0179-0.0553-0.0235-0.0832L44.411,57.5599z" fill="#52BD96"/><path d="M42.0486,54.1134c0.9818,0.4037,1.9671,2.1498,2.4249,3.0976c0.1328,0.2749,0.0176,0.6054-0.2573,0.7382      c-0.2749,0.1328-0.6053,0.0176-0.7382-0.2573C43.3825,57.4939,43.0731,54.934,42.0486,54.1134z" fill="#52BD96"/><path d="M45.006,57.4915c-0.089-1.8478-0.5787-4.3283-1.9073-5.63c1.6099,1.0936,2.562,3.6112,2.9934,5.501      c0.0676,0.296-0.1178,0.5907-0.4137,0.6583c-0.296,0.0676-0.5908-0.1176-0.6583-0.4136      c-0.0071-0.0311-0.0113-0.0621-0.0131-0.0929L45.006,57.4915z" fill="#52BD96"/><path d="M45.4763,57.5139c-0.0212-1.8812-0.2311-3.877-1.0825-5.6525c1.1761,1.6121,1.7786,3.5729,2.1732,5.5724      c0.0589,0.2983-0.1351,0.5877-0.4334,0.6466c-0.2983,0.0589-0.5877-0.1351-0.6466-0.4334      c-0.0064-0.0326-0.0099-0.0652-0.0104-0.0973L45.4763,57.5139z" fill="#52BD96"/><path d="M45.0356,51.3364c1.0187,1.8824,1.7516,3.9139,2.1671,6.0954c0.1362,0.7143-0.944,0.921-1.0803,0.2058      c-0.0057-0.0304-0.0089-0.0606-0.0096-0.0905C46.0644,55.3781,45.7145,53.3367,45.0356,51.3364z" fill="#52BD96"/></g><g><path d="M55.4507,52.4565c-0.9042,0.5193-1.42,1.4403-1.846,2.339c-1.1531,2.5088-0.7112,3.4811-1.622,3.2676      c-0.2956-0.0692-0.479-0.365-0.4097-0.6605C51.7908,56.476,53.6411,53.0967,55.4507,52.4565z" fill="#52BD96"/><path d="M54.284,52.3165c-2.4218,2.7968-1.5078,5.9495-2.7664,5.7074      c-0.2981-0.0573-0.4933-0.3455-0.4359-0.6436C51.2524,56.4809,52.7354,53.4765,54.284,52.3165z" fill="#52BD96"/><path d="M53.1086,55.4745c0.3857-0.5267,0.804-1.1076,1.4204-1.361c-0.5071,0.4061-0.7192,1.0283-0.9329,1.6089      c-0.1968,0.5917-0.3482,1.2174-0.4483,1.8155c-0.1141,0.7219-1.2062,0.5502-1.0919-0.1728      C52.064,57.3128,52.8695,55.8221,53.1086,55.4745z" fill="#52BD96"/><path d="M53.4788,51.8614c-0.7474,0.7323-1.1535,1.6936-1.4333,2.6611      c-0.7246,2.5591-0.1222,3.556-1.0504,3.5113c-0.3033-0.0146-0.5374-0.2722-0.5227-0.5755      C50.5015,56.8274,51.5413,53.1775,53.4788,51.8614z" fill="#52BD96"/><path d="M52.1836,51.8614c-1.7601,3.6701-0.3971,6.2435-1.6396,6.2294      C49.0088,58.0732,51.2868,53.0908,52.1836,51.8614z" fill="#52BD96"/><path d="M51.5419,51.3364c-1.1612,3.4208-1.0801,6.3855-1.0771,6.2076      c-0.0051,0.3037-0.2554,0.5456-0.5591,0.5405c-0.3036-0.0051-0.5456-0.2555-0.5404-0.5591      C49.3745,56.9862,50.082,54.0341,51.5419,51.3364z" fill="#52BD96"/><path d="M45.9014,52.4565c1.7089,0.6045,3.1267,3.1853,3.8473,4.8536c0.288,0.6672-0.7206,1.1039-1.0093,0.4358      c-0.0127-0.0294-0.0226-0.0593-0.0299-0.0895C48.2885,55.927,47.4383,53.3393,45.9014,52.4565z" fill="#52BD96"/><path d="M47.0682,52.3165c1.4405,1.0791,2.5599,3.3,3.1783,4.9775c0.1049,0.2848-0.0409,0.6008-0.3256,0.7058      c-0.3144,0.1159-0.6621-0.074-0.7293-0.4089C49.1915,57.591,48.3661,53.8154,47.0682,52.3165z" fill="#52BD96"/><path d="M47.7562,55.7223c-0.2137-0.5806-0.4259-1.2028-0.9329-1.6089c0.6164,0.2535,1.0347,0.8343,1.4204,1.361      c0.3794,0.5518,0.7058,1.1183,1.0045,1.7366c0.318,0.6581-0.677,1.1398-0.9954,0.4808      C48.2297,57.6443,48.1615,56.941,47.7562,55.7223z" fill="#52BD96"/><path d="M49.3067,54.5226c-0.28-0.9675-0.686-1.9288-1.4333-2.6611c1.6099,1.0936,2.562,3.6112,2.9934,5.501      c0.0676,0.296-0.1178,0.5907-0.4137,0.6583C49.4147,58.2577,50.0034,56.9829,49.3067,54.5226z" fill="#52BD96"/><path d="M49.1685,51.8614c1.1761,1.6121,1.7786,3.5729,2.1732,5.5724c0.1409,0.7138-0.9388,0.9282-1.0799,0.2132      c-0.0064-0.0326-0.0099-0.0652-0.0104-0.0973C50.2185,55.5722,50.0243,53.6462,49.1685,51.8614z" fill="#52BD96"/><path d="M49.8103,51.3364c1.0187,1.8824,1.7516,3.9139,2.1671,6.0954c0.1362,0.7143-0.944,0.921-1.0803,0.2058      c-0.0057-0.0304-0.0089-0.0606-0.0096-0.0905C50.839,55.3781,50.4892,53.3367,49.8103,51.3364z" fill="#52BD96"/></g><g><path d="M56.3782,57.3101c0.722-1.672,2.1397-4.2495,3.8471-4.8536c-1.5111,0.8679-2.4095,3.4991-2.8036,5.1811      l-0.0037,0.0158c-0.0693,0.2956-0.365,0.479-0.6606,0.4097c-0.2956-0.0692-0.479-0.365-0.4097-0.6605      C56.355,57.3714,56.3661,57.3386,56.3782,57.3101z" fill="#52BD96"/><path d="M59.0586,52.3165c-1.2778,1.4756-1.7679,3.426-2.1174,5.2434l-0.0053,0.028      c-0.0574,0.2981-0.3455,0.4933-0.6436,0.436c-0.2981-0.0573-0.4933-0.3455-0.4359-0.6436      C56.0271,56.4809,57.51,53.4765,59.0586,52.3165z" fill="#52BD96"/><path d="M56.8786,57.211c0.2987-0.6183,0.6252-1.1848,1.0046-1.7366c0.3857-0.5267,0.804-1.1076,1.4204-1.361      c-0.5071,0.4061-0.7192,1.0283-0.9329,1.6089c-0.5207,1.5655-0.3225,2.395-1.0806,2.2752      c-0.3016-0.0477-0.5073-0.3308-0.4597-0.6324C56.8387,57.3128,56.8574,57.2567,56.8786,57.211z" fill="#52BD96"/><path d="M58.2534,51.8614c-1.3278,1.301-1.8182,3.7799-1.9073,5.63l-0.0009,0.0197      c-0.0145,0.3033-0.2724,0.5373-0.5755,0.5227c-0.3033-0.0146-0.5374-0.2722-0.5227-0.5755      C55.2762,56.8274,56.316,53.1775,58.2534,51.8614z" fill="#52BD96"/><path d="M56.9583,51.8614c-0.8515,1.7755-1.0612,3.7712-1.0826,5.6525l-0.0003,0.0327      c-0.0035,0.304-0.2527,0.5476-0.5567,0.5442c-0.3039-0.0035-0.5475-0.2527-0.544-0.5567      C54.7811,56.7324,55.6541,53.6492,56.9583,51.8614z" fill="#52BD96"/><path d="M56.3165,51.3364c-0.6824,2.0102-1.0422,4.1378-1.0766,6.1796l-0.0005,0.028      c-0.0051,0.3037-0.2554,0.5456-0.5591,0.5405c-0.3036-0.0051-0.5456-0.2555-0.5404-0.5591      C54.1492,56.9862,54.8566,54.0341,56.3165,51.3364z" fill="#52BD96"/><path d="M52.5221,54.7956c-0.426-0.8988-0.9419-1.8197-1.8461-2.339c1.7089,0.6045,3.1266,3.1853,3.8473,4.8536      c0.1203,0.2787-0.008,0.6022-0.2868,0.7225C53.254,58.4571,53.6422,57.2324,52.5221,54.7956z" fill="#52BD96"/><path d="M51.8429,52.3165c1.4405,1.0791,2.5599,3.3,3.1783,4.9775c0.2679,0.7272-0.898,1.0781-1.055,0.297      C53.5873,55.7059,53.1408,53.8154,51.8429,52.3165z" fill="#52BD96"/><path d="M52.5308,55.7223c-0.2137-0.5806-0.4259-1.2028-0.9329-1.6089c0.6164,0.2535,1.0347,0.8343,1.4204,1.361      c0.3794,0.5518,0.7058,1.1183,1.0045,1.7366c0.318,0.6581-0.677,1.1398-0.9954,0.4808      C53.0044,57.6443,52.9361,56.941,52.5308,55.7223z" fill="#52BD96"/><path d="M52.648,51.8614c1.6099,1.0936,2.562,3.6112,2.9933,5.501c0.1617,0.7086-0.9101,0.9542-1.0721,0.2447      c-0.0071-0.0311-0.0113-0.0621-0.0131-0.0929C54.4494,55.6192,53.9999,53.186,52.648,51.8614z" fill="#52BD96"/><path d="M53.9432,51.8614c1.1761,1.6121,1.7786,3.5729,2.1732,5.5724c0.1409,0.7138-0.9388,0.9282-1.0799,0.2132      c-0.0064-0.0326-0.0099-0.0652-0.0104-0.0973C54.9932,55.5722,54.799,53.6462,53.9432,51.8614z" fill="#52BD96"/><path d="M54.585,51.3364c1.0187,1.8824,1.7516,3.9139,2.1671,6.0954c0.0569,0.2983-0.139,0.5862-0.4372,0.6431      C55.0188,58.3216,56.2739,56.3129,54.585,51.3364z" fill="#52BD96"/></g><g><path d="M65,52.4565c-2.1316,1.2242-2.975,5.9121-2.8074,5.1969c-0.1658,0.7073-1.2365,0.4578-1.0703-0.2508      C61.3401,56.476,63.1904,53.0967,65,52.4565z" fill="#52BD96"/><path d="M63.8333,52.3165c-1.6877,1.949-2.1421,5.3717-2.1228,5.2714      c-0.1374,0.7134-1.2172,0.5071-1.0795-0.2076C60.8017,56.4809,62.2847,53.4765,63.8333,52.3165z" fill="#52BD96"/><path d="M62.6579,55.4745c0.3857-0.5267,0.804-1.1076,1.4204-1.361c-0.5071,0.4061-0.7192,1.0283-0.9329,1.6089      c-0.1968,0.5917-0.3482,1.2174-0.4483,1.8155c-0.1141,0.7219-1.2062,0.5502-1.0919-0.1728      C61.6133,57.3128,62.4188,55.8221,62.6579,55.4745z" fill="#52BD96"/><path d="M60.0348,57.3624c0.4312-1.8892,1.3832-4.4073,2.9933-5.501c-0.7474,0.7323-1.1535,1.6936-1.4333,2.6611      c-0.7246,2.5591-0.1222,3.556-1.0504,3.5113c-0.3033-0.0146-0.5374-0.2722-0.5227-0.5755      C60.0231,57.4265,60.0281,57.3925,60.0348,57.3624z" fill="#52BD96"/><path d="M61.733,51.8614c-1.7601,3.6701-0.3971,6.2435-1.6396,6.2294c-0.3039-0.0035-0.5475-0.2527-0.544-0.5567      C59.5558,56.7324,60.4288,53.6492,61.733,51.8614z" fill="#52BD96"/><path d="M61.0912,51.3364c-0.6824,2.0102-1.0421,4.1378-1.0766,6.1796l-0.0005,0.028      c-0.0051,0.3037-0.2554,0.5456-0.5591,0.5405c-0.3036-0.0051-0.5456-0.2555-0.5404-0.5591      C58.9238,56.9862,59.6313,54.0341,61.0912,51.3364z" fill="#52BD96"/><path d="M55.4507,52.4565c1.7089,0.6045,3.1266,3.1853,3.8473,4.8536c0.288,0.6672-0.7206,1.1039-1.0093,0.4358      c-0.0127-0.0294-0.0226-0.0593-0.0299-0.0895C57.8378,55.927,56.9876,53.3393,55.4507,52.4565z" fill="#52BD96"/><path d="M56.6175,52.3165c1.4405,1.0791,2.5599,3.3,3.1783,4.9775c0.2512,0.6819-0.7799,1.0631-1.0315,0.3802      c-0.0101-0.0276-0.0179-0.0553-0.0235-0.0832C58.362,55.7059,57.9155,53.8154,56.6175,52.3165z" fill="#52BD96"/><path d="M57.3055,55.7223c-0.2137-0.5806-0.4259-1.2028-0.9329-1.6089c0.6164,0.2535,1.0347,0.8343,1.4204,1.361      c0.3794,0.5518,0.7059,1.1183,1.0045,1.7366c0.318,0.6581-0.677,1.1398-0.9954,0.4808      C57.779,57.6443,57.7108,56.941,57.3055,55.7223z" fill="#52BD96"/><path d="M58.856,54.5226c-0.28-0.9675-0.686-1.9288-1.4333-2.6611c1.6099,1.0936,2.562,3.6112,2.9934,5.501      c0.0676,0.296-0.1178,0.5907-0.4137,0.6583C58.9641,58.2577,59.5527,56.9829,58.856,54.5226z" fill="#52BD96"/><path d="M58.7178,51.8614c1.1761,1.6121,1.7786,3.5729,2.1732,5.5724c0.0589,0.2983-0.1351,0.5877-0.4334,0.6466      C59.0698,58.3544,60.4976,55.5729,58.7178,51.8614z" fill="#52BD96"/><path d="M59.3596,51.3364c1.0187,1.8824,1.7516,3.9139,2.1671,6.0954c0.1362,0.7143-0.944,0.921-1.0803,0.2058      c-0.0057-0.0304-0.0089-0.0606-0.0096-0.0905C60.3883,55.3781,60.0385,53.3367,59.3596,51.3364z" fill="#52BD96"/></g></g><rect fill="#9B673D" height="1.2517" width="61.8287" x="3.0504" y="57.6145"/></g><g><ellipse cx="7.5018" cy="19.6953" fill="#52BD96" rx="3.0351" ry="3.2955"/><g><path d="M12.1744,23.0156c0.5429-0.1887,1.1051-0.3396,1.7026-0.3511c0.6017-0.0104,1.1877,0.1787,1.7199,0.4165     c1.054,0.524,1.9266,1.2319,2.9967,1.6554c-0.5769-0.0567-1.1311-0.2767-1.6475-0.5288     c-0.5204-0.2504-1.0041-0.5521-1.5144-0.7761c-0.4964-0.2551-1.0205-0.4178-1.5651-0.4701     C13.3187,22.911,12.7494,22.9827,12.1744,23.0156z" fill="#CEDDED"/><path d="M9.1359,27.1803c0.4472-0.742,1.1733-1.3212,2.0092-1.6294c0.848-0.3149,1.7524-0.2772,2.5963-0.3123     c0.4255-0.0042,0.8455-0.0215,1.2524-0.0958c0.4066-0.0669,0.7981-0.2254,1.2132-0.3497     c0.4112-0.1281,0.8434-0.2551,1.2903-0.2651c0.4396-0.0017,0.9066,0.0947,1.2369,0.384     c-0.784-0.4244-1.6604-0.1553-2.4263,0.1619c-0.7742,0.3604-1.6956,0.5507-2.5576,0.5521     c-0.8657,0.0018-1.7149-0.0251-2.5119,0.2069C10.4416,26.0647,9.7096,26.538,9.1359,27.1803z" fill="#CEDDED"/><path d="M8.4166,22.2095c0.8873-0.2222,1.8097,0.1525,2.5735,0.5885c0.7753,0.4396,1.4844,0.9797,2.3035,1.184     c0.812,0.2381,1.6994,0.1687,2.59,0.2165c0.8795,0.0471,1.8486,0.2189,2.5037,0.8532c-0.7482-0.4953-1.647-0.5642-2.5099-0.5548     c-0.8699,0.0114-1.7785,0.0881-2.686-0.1412c-0.9037-0.265-1.6323-0.8254-2.3566-1.3045     C10.1159,22.5785,9.3138,22.1539,8.4166,22.2095z" fill="#CEDDED"/><path d="M6.4223,24.119c1.0521-0.0796,2.078,0.3058,3.0384,0.6668c0.9675,0.3703,1.9273,0.7142,2.9437,0.7068     c2.0321,0.0844,4.0332-0.7223,6.1247-0.7752c-2.0327,0.3669-3.9816,1.1954-6.136,1.1626     c-1.0733-0.0242-2.1084-0.3912-3.0445-0.819C8.4034,24.6418,7.4653,24.2025,6.4223,24.119z" fill="#CEDDED"/></g><path d="M21.2615,29.4621l-0.6897-2.3131c0,0-0.2441-0.8914-0.1698-1.2309h-0.7322l-0.4457,0.3077    c0,0,0.0531-0.3926-0.0849-0.3926s-0.2016-0.0424-0.191,0.5306c0.0106,0.573,1.1256,1.1693,1.3215,3.5718s0.8963,0,0.8963,0    L21.2615,29.4621z" fill="#F7B198"/><path d="M31.4975,57.5367c-0.3285,0.2299-4.0818,0.2802-4.311,0.1394c-0.6906-0.4226-0.4469-2.6426-0.7214-3.0981    c-0.2642-0.4412,0.2942-0.8513,0.2942-0.8513l1.0575,0.4533c0,0,0.0688,0.4629,0.3266,0.9665    c0.2617,0.5106,0.7163,1.0626,1.4898,1.2154C31.1689,56.6664,31.8254,57.3062,31.4975,57.5367z" fill="#F7B198"/><path d="M17.6164,51.1902c0,0-0.4374,0.5858-0.8882,0.7933c-0.5193,0.2383-1.6162,1.6393-1.763,2.7136    c-0.1585,1.1537-0.4877,1.6961-0.8557,1.479c-0.5278-0.3113-0.3164-1.8604-0.3349-2.4092    c-0.0191-0.5488-0.6049-1.3307-0.6049-1.749c0-0.4189,1.1537-0.5399,1.5631-0.5673c0.114-0.0076,0.2808-0.0681,0.461-0.1502    c0.466-0.2133,1.027-0.5756,1.027-0.5756h0.9767L17.6164,51.1902z" fill="#F7B198"/><path d="M63.0613,57.4508c-0.2185,0.8372-3.3015-0.2614-4.2161-0.1343c-0.1891,0.0261-0.8016-0.7029-0.8016-0.7029    l-0.3139-0.9748l-0.105-0.326c0,0,0.0987-1.5408,1.1174-1.3269l1.1168,0.7303v0.1566c0,0,1.4536,0.9767,1.6586,1.0505    C61.723,55.9978,63.2008,56.9172,63.0613,57.4508z" fill="#BE3A37"/><path d="M61.22,57.6456c-0.6456-0.1146-2.1915-0.3546-2.3748-0.3292c-0.1891,0.0261-0.8016-0.7029-0.8016-0.7029    l-0.3139-0.9748c0.0618-0.1261,0.1465-0.2451,0.2604-0.3381c0.4521-0.3674,3.0222,0.878,3.3522,1.4185    C61.6869,57.2837,61.22,57.6456,61.22,57.6456z" fill="#F7B198"/><path d="M54.5281,55.1538c0,0,0.7922-1.1695,1.1444-1.0752s1.3708,1.255,1.3708,1.255l-0.5912,0.5413l-1.1066,0.09    c0,0-0.5098-0.1886-0.5473-0.2138c-0.0375-0.0252-0.4085-0.371-0.4085-0.371L54.5281,55.1538z" fill="#BE3A37"/><path d="M50.4063,55.5883l4.1218-0.4345l0.2701,0.2853c0,0-0.333,0.6705-0.6348,0.6642    c-0.3018-0.0063-3.5462,0.0755-3.6846,0.0629c-0.1383-0.0126-0.5848-0.2912-0.5848-0.2912L50.4063,55.5883z" fill="#101B2B"/><path d="M44.3089,48.0831c0,0,0.0389,1.0639-0.1509,2.0124c-0.1897,0.9485-1.952,7.8509,0.1433,7.5189    c2.5725-0.4076,2.5851-0.8059,2.5851-0.8059l1.5083-6.7605l-1.0663-3.0228l-2.0639-1.2931L44.3089,48.0831z" fill="#101B2B"/><path d="M51.3475,47.4567c0.0107,0.5398-0.0582,1.0368-0.1881,1.5008c-0.199,0.7104-0.3752,1.4269-0.4286,2.1626    l-0.3553,4.8934c1.524-0.4521,4.4362-0.6105,7.6146-0.7126c0.7296,0.6221,1.0453,1.2905,0.8551,2.0156    c0,0-9.5127,1.349-11.4488,0.6542c-0.8593-0.3084-0.6622-5.3684-1.6017-8.2891c-0.1419-0.4413-0.7076-1.7138-0.7076-1.7138    l0.7483-1.7678l2.8911-0.1629L51.3475,47.4567z" fill="#273240"/><path d="M41.9303,36.7418l-0.6711,1.2021c0,0-6.349,1.6325-6.8871,1.6656    c-0.538,0.0331-2.3946,1.2963-3.3617,1.4937c-0.9665,0.198-1.8012-1.6146-0.9009-1.6477    c0.9009-0.0331,2.0437-0.7252,2.0437-0.7252s-0.6157,0.0554-0.857,0c-0.2273-0.0508-0.2769-0.5037,0.035-0.4858    c0.6959,0.0407,0.9264-0.2547,2.096-0.0961c1.2963,0.1757,5.6029-1.6261,5.7124-1.6261c0.1101,0,1.3701-0.2961,1.3701-0.2961    L41.9303,36.7418z" fill="#F7B198"/><path d="M46.9837,36.8411l-3.6909,0.878l-1.7241,0.4915c-0.0955,0.0274-0.1961-0.0191-0.2375-0.1089l-0.8035-1.763    c-0.0503-0.1108,0.0089-0.24,0.1254-0.275l5.5513-1.6516L46.9837,36.8411z" fill="#D6677C"/><path d="M46.5881,34.1149c0,0-0.3122-0.9168-0.4949-0.9344s-0.8711,0.0386-0.8852-0.3372    c-0.014-0.3758-0.3407-0.5128-0.3267-0.6007c0.014-0.0878,0.1405-0.1946,0.1265-0.2396c-0.014-0.045-0.3372-0.1398-0.3372-0.3014    c0-0.1616,0.007-0.2951-0.0808-0.2986c-0.0878-0.0035-0.2856-0.0494-0.3899-0.1862c-0.05-0.0655,0.3412-0.573,0.1972-1.0296    c-0.144-0.4566-0.2358-1.6872-0.0392-1.8297c0.5363-0.3885,2.6485-0.0422,2.6485-0.0422l0.3302,1.2716l0.3502,4.4929    l-0.2553,0.5125c0,0-0.6955-0.1606-0.685-0.1804C46.7571,34.3924,46.5881,34.1149,46.5881,34.1149z" fill="#F7B198"/><path d="M51.3475,47.4567c-0.6131-0.256-2.0425-0.8207-2.6314-0.7678c-1.7866,0.1592-3.1166,1.43-4.4072,1.3943    c0,0,0.426-5.0846,0.1057-7.6765c-0.1127-0.9124-0.1101-2.8218,0.2458-3.6686c0.4278-1.0181,1.3383-2.0979,1.705-2.5105    c0.0942-0.1051,0.2426-0.142,0.375-0.0923l0.3464,0.1299c1.8601-0.3738,3.2248-0.7704,3.8596,1.4033    c0.5469,1.8738-0.0961,5.1425-0.0974,7.094c-0.0006,0.9958,0.5316,3.6151,0.7201,4.5116    C51.5958,47.4019,51.4679,47.5076,51.3475,47.4567z" fill="#F28092"/><path d="M43.8088,39.7777l-0.4725,0.37l-4.3503,4.4162c0,0-2.0323,3.1528-2.5157,3.2847    c-0.4834,0.1318-0.8459-0.3955-0.6591-0.747c0.1868-0.3515,1.0766-1.0766,1.494-2.0213c0.5754-1.3022-0.31,0.7273-0.6921,0.791    c-0.1318,0.022-0.5932,0.022-0.4834-0.2856s1.2853-1.7137,1.3732-1.8785c0.0879-0.1648,1.1393-0.3436,1.6368-1.0217    c0.7138-0.9727,3.5052-4.2773,3.5052-4.2773l1.3834-0.073L43.8088,39.7777z" fill="#F7B198"/><path d="M48.8224,37.0589c-0.5698,0.4482-3.7908,2.3029-4.574,2.981c-0.0955,0.0828-0.24,0.0586-0.305-0.0497    c-0.3037-0.5068-0.7233-1.0041-1.2434-1.4924c-0.0892-0.084-0.0834-0.2279,0.014-0.3037c1.2734-0.9907,4.3728-3.929,4.3728-3.929    s0.7799-0.4731,1.6331,0.0554C49.5731,34.8496,49.4617,36.5559,48.8224,37.0589z" fill="#DB7483"/><path d="M52.1364,40.1933c-0.0841,1.3759-0.7748,2.35-0.836,3.1306c-0.0191,0.2458-0.093,0.4852-0.2375,0.6844    c-0.0866,0.1191-0.1865,0.2343-0.2852,0.2967c0,0-0.3661-1.2995-0.5908-1.926c-0.2241-0.6259,0.1776-2.5754,0.3311-2.9657    c0.1534-0.3896,0.496-2.4926,0.2247-3.0243c-0.2719-0.5316-0.5558-0.6615-0.5558-0.6615s-0.496,0.354-0.3069,0.7086    c0.1891,0.3546,0.8742,1.3116-0.0471,2.5518c0,0-0.0592,0.3196,0.2241,0.7093c0.284,0.389-0.2228,1.062-0.6367,1.4281    c0.0267-0.0344,0.5705-0.7341,0.2706-1.3103c-0.3069-0.5902-0.2483-1.2167-0.0592-1.5478    c0.1891-0.3304-0.7678-1.2103-0.7678-1.9521c0-0.7417,0.4374-1.0957-0.0942-1.3912c-0.5316-0.2954-2.6353-1.5713-2.7059-2.5875    c-0.0707-1.0162-0.1433-3.3948-1.7254-3.9602c0,0-0.3999-1.8095,1.0435-1.8801c1.4427-0.0713,2.5843-0.1796,3.6737,1.3581    c1.0894,1.537,0.9098,4.0602,1.0703,4.5555c0.1604,0.4953,0.8207,2.2965,1.2262,2.8817c0,0,0.4043,0.5456,0.4189,1.4434    c0.0108,0.6316,0.0841,1.2619,0.2311,1.8763C52.102,39.0275,52.1752,39.5649,52.1364,40.1933z" fill="#273240"/><path d="M25.7404,45.4561c1.0777,2.3111,1.699,5.3606,2.1578,8.6731c-0.4413,0.2897-1.0219,0.418-1.6666,0.472    c0,0-2.0059-7.2356-3.3038-8.426s0.3245-1.9869,0.3245-1.9869L25.7404,45.4561z" fill="#4C1414"/><path d="M23.0101,46.2579c0,0-0.4985,3.3776-1.1148,4.302c-0.2895,0.4343-4.161,1.3501-4.9913,1.5423    c-0.0822,0.019-0.1624-0.0355-0.176-0.1188c-0.0742-0.4545-0.2833-0.9036-0.5634-1.3499c-0.0484-0.0771-0.0146-0.1793,0.07-0.2128    l4.2301-1.675l0.2273-2.9979l1.6311-0.9696l1.6077,0.3392L23.0101,46.2579z" fill="#631012"/><path d="M31.4975,57.5367c-0.3285,0.2299-4.0638,0.2454-4.311,0.1394c-0.641-0.2748-0.7924-2.0091-0.5971-2.1784    c0.6643-0.576,1.5541-0.3511,1.5541-0.3511c0.2617,0.5106,0.7163,1.0626,1.4898,1.2154    C31.1689,56.6664,31.8254,57.3062,31.4975,57.5367z" fill="#101B2B"/><path d="M15.7025,53.0334c-0.3508,0.4992-0.6609,1.1047-0.7373,1.6637c-0.1585,1.1537-0.4877,1.6961-0.8557,1.479    c-0.5278-0.3113-0.3164-1.8604-0.3349-2.4092c-0.0191-0.5488-0.6049-1.3307-0.6049-1.749c0-0.4189,1.1537-0.5399,1.5631-0.5673    c0.114-0.0076,0.2808-0.0681,0.461-0.1502C15.1938,51.3004,15.1843,52.5986,15.7025,53.0334z" fill="#101B2B"/><path d="M26.1162,45.4053c-1.6102,1.0805-4.1098,0.9748-6.188,0.0439c0,0-0.4559-2.1488-0.2566-5.7881    c0.142-2.5977,0.0197-3.0981-0.0299-4.5313c-0.049-1.4332,0.7545-1.9323,0.7545-1.9323s-0.1655,1.0422,0.0535,1.2734    c0.3648,0.3839,2.11,0.1986,2.11,0.1986c1.2785,0.4909,2.4538,2.9568,2.5092,5.806c0.0184,0.9792,0.9066,3.6635,1.1925,4.5046    C26.3155,45.1385,26.255,45.3123,26.1162,45.4053z" fill="#496CB3"/><path d="M24.0873,33.1967c-0.0873,0.0679-0.2522,0.8049-0.3491,1.1347c-0.097,0.3394-1.0863-0.1455-1.1833-0.0873    c-0.0873,0.0679,0,0.4267,0,0.4267s-1.736,0.1843-2.1046-0.2036c-0.2231-0.2231-0.0582-1.2705-0.0582-1.2705l0.0194-0.0776    l0.5043-1.6099c0,0,2.929-1.028,3.1326-0.902c0.0582,0.0485,0.2522,1.1735,0.1649,1.319    c-0.0873,0.1454-0.097,0.5625,0.0679,0.8535C24.4462,33.0609,24.1746,33.1385,24.0873,33.1967z" fill="#F7B198"/><path d="M22.555,34.6708c0,0-1.736,0.1843-2.1046-0.2036c-0.2231-0.2231-0.0582-1.2705-0.0582-1.2705    l0.0194-0.0776c0.3977-0.3201,0.8147-0.5625,0.8923-0.2328c0.1649,0.6595,1.2511,1.3578,1.2511,1.3578    C22.4677,34.3119,22.555,34.6708,22.555,34.6708z" fill="#F6A98D"/><path d="M24.0463,30.6105c0,0-0.0948,0.6098-0.3441,0.7843c-0.2492,0.1745-1.1714,0.673-1.1914,0.7727    s0.0584,0.3077,0,0.3838c-0.0479,0.0624-0.236,0.0891-0.3091,0.0598c-0.2168-0.0868-0.3753-0.8128-0.7378-0.5733    c-0.366,0.2418-0.3041,0.5832-0.1595,0.8474c0.1446,0.2642-0.971,0.7345-0.971,0.7345s-0.3095-0.7989-0.3849-1.0635    c-0.2143-0.7519-0.3639-2.5772,0.8973-2.9959C22.1071,29.1416,23.9567,29.7664,24.0463,30.6105z" fill="#273240"/><path d="M19.8433,32.0313c-0.7877,1.1768-1.6898,1.741-1.9039,3.3035c-0.079,0.577-0.3399,1.5966-0.0711,2.2368    c0.2687,0.6402,0.3478,0.7351,0.3478,0.7351s0-1.0591,0.2924-1.2646c0,0,0.0079,0.5928,0.4031,0.8931    c0,0-0.1423-0.9011,0.1265-0.988c0.2687-0.0869,1.5176-0.3478,0.9722-1.1145s-0.8457-0.7746-0.6955-1.1619    s0.7434-1.826,0.7434-1.826L20.2,32.3392L19.8433,32.0313z" fill="#273240"/><path d="M19.6906,26.6082c0.3505-0.1155,1.0311-0.6812,0.9942-1.0909c-0.0352-0.3916-0.878-1.1702-1.5071-0.7596    c-0.0544,0.0355-0.1264,0.0281-0.1749-0.0152l0,0c-0.0473-0.0422-0.0625-0.1099-0.037-0.1679    c0.0574-0.1308,0.1464-0.357,0.1079-0.4244c-0.0552-0.0967-0.6674-0.8009-0.8285-0.6536s-0.4143,0.8009-0.4097,0.9988    c0.0046,0.1979-0.4281,0.7411-0.3959,1.0126s0.7595,0.3406,0.8607,0.2394c0.1013-0.1013,0.2027-0.6039,0.382-0.6812    c0.0421-0.0182,0.158,0.0126,0.1749,0.0552c0.1092,0.2745-0.479,0.8607,0.0896,1.1783S19.4995,26.6712,19.6906,26.6082z" fill="#EE4743"/><ellipse cx="10.7637" cy="21.7586" fill="#EE4743" rx="3.0351" ry="3.2955"/><path d="M7.1263,24.7708c-1.3975,1.1963-4.2811,0.3266-5.4074-0.9894c-1.1257-1.3167-0.9054-3.3528,0.4922-4.5491    c1.3982-1.1957,3.4438-1.0983,4.5701,0.2178C7.9069,20.766,8.5245,23.5751,7.1263,24.7708z" fill="#F28092"/><path d="M8.6399,25.2513c1.4904,0.9358,1.5169,3.8168,0.6356,5.22c-0.882,1.4028-2.8043,1.7812-4.2946,0.8454    c-1.49-0.9365-1.9833-2.8325-1.102-4.2357C4.7603,25.6784,7.1499,24.3148,8.6399,25.2513z" fill="#496CB3"/><path d="M20.76,42.6296c0,0-0.1453,0.8891-0.1971,1.1849c-0.0733,0.4188-0.2755,1.4982-0.5263,1.6172    c-0.2508,0.119-1.546-0.007-1.448-0.5041c0.098-0.4971,0.4621-0.9801,0.6791-1.2392c0.217-0.259,0.5817-0.9079,0.5884-1.2346    c0.0067-0.3267,0.5808-0.3757,0.5808-0.3757L20.76,42.6296z" fill="#F7B198"/><path d="M22.8245,36.2261c-0.0149,1.1796-1.5623,5.4622-1.8723,6.3088c-0.0286,0.0781-0.1132,0.1202-0.1923,0.0947    c-0.2952-0.0949-0.7196-0.1569-1.1813-0.2092c-0.0745-0.0083-0.1229-0.0815-0.1012-0.1528    c0.198-0.6558,1.0365-3.4559,1.0149-3.8284C20.2445,34.2211,22.848,34.2931,22.8245,36.2261z" fill="#3459A7"/></g></g></svg>